<?xml version="1.0" standalone="no"?>
<!DOCTYPE svg PUBLIC "-//W3C//DTD SVG 1.1//EN" "http://www.w3.org/Graphics/SVG/1.1/DTD/svg11.dtd" >
<svg xmlns="http://www.w3.org/2000/svg">
<metadata>
Created by FontPrep 20130207 at Thu Jul 10 14:53:29 2014
 By Anton Nemtsev
(c) 1990, 1991, 1992, 1994, 1997, 1998, 2000, 2002, 2004 Adobe Systems Incorporated. All rights reserved.
</metadata>
<defs>
<font id="4ca7262bde578ad3c2c0c1500f99cba2" horiz-adv-x='1024' >
  <font-face 
    font-family="MinionPro-It"
    font-weight="400"
    font-style="italic"
    font-stretch="normal"
    units-per-em="2048"
    panose-1="2 0 5 3 0 0 0 0 0 0"
    ascent="1489"
    descent="-559"
    x-height="920"
    cap-height="1329"
    bbox="-291.413 -526 2066 1675"
    underline-thickness="102"
    underline-position="-102"
    slope="-12"
    unicode-range="U+0020-20B9"
  />
<missing-glyph horiz-adv-x="1024" 
 />
    <glyph glyph-name=".notdef" horiz-adv-x="1024" 
 />
    <glyph glyph-name=".null" horiz-adv-x="0" 
 />
    <glyph glyph-name="nonmarkingreturn" horiz-adv-x="681" 
 />
    <glyph glyph-name="space" unicode=" " horiz-adv-x="468" 
 />
    <glyph glyph-name="exclam" unicode="!" horiz-adv-x="530" 
d="M206 -25q-48 0 -79 33q-29 33 -29 84t35 91t87 40t81 -33t29 -89t-39 -89q-37 -37 -85 -37zM457 1360q57 0 80 -15t16 -45q-1 -10 -107 -393t-143 -506q-10 -10 -35 -10t-28 10q47 436 65 624t29 278q8 57 123 57z" />
    <glyph glyph-name="quotedbl" unicode="&#x22;" horiz-adv-x="706" 
d="M797 1454l16 -14q-23 -74 -75 -209t-97 -227l-61 -27q63 354 65 432zM479 1454l17 -14q-20 -66 -74 -207t-98 -229l-62 -27q63 348 66 432z" />
    <glyph glyph-name="numbersign" unicode="#" 
d="M698 811h-225l-84 -285h225zM991 932l-22 -121h-189l-84 -285h170l-24 -118h-180l-107 -365h-82l105 365h-226l-106 -365h-82l106 365h-196l26 118h205l84 285h-188l26 121h199l94 321h82l-94 -321h223l96 321h82l-94 -321h176z" />
    <glyph glyph-name="dollar" unicode="$" 
d="M569 557l-90 -485q113 8 176 78q61 72 61 158t-33 138q-34 54 -114 111zM383 987q0 -125 156 -219l84 438q-117 -2 -179 -67q-61 -66 -61 -152zM938 928l-59 -6q-12 242 -185 280l-90 -471l45 -29q113 -70 172 -146t60 -183q0 -162 -120 -259t-296 -108l-35 -172h-72
l35 172q-113 6 -195 46t-114 77q0 96 -4 281l57 6q12 -82 37 -148t86 -126t146 -68l98 518l-43 29q-229 135 -225 311q0 158 116 246q117 88 283 92l31 155h73l-30 -157q88 -2 241 -78q-2 -51 -12 -262z" />
    <glyph glyph-name="percent" unicode="%" horiz-adv-x="1538" 
d="M1311 492q0 164 -97 163q-53 0 -97 -48q-73 -80 -105 -267q-12 -68 -13 -123q0 -182 99 -182q55 0 98 55q43 49 79 167q36 117 36 235zM1450 436q0 -166 -104 -313t-261 -148q-111 0 -167 79q-56 80 -58 222q0 142 103 291q104 147 260 148q113 0 170 -79t57 -200z
M639 1077q0 162 -98 162q-68 0 -118 -82q-51 -82 -73 -179t-22 -175q0 -182 96 -182q76 0 125 92q90 153 90 364zM776 1020q0 -168 -104 -311q-102 -147 -258 -148q-111 0 -168 79q-58 78 -58 222t103 293q104 145 260 145q113 0 170 -79q55 -84 55 -201zM1354 1292
l-1012 -1347l-57 49l1009 1345z" />
    <glyph glyph-name="ampersand" unicode="&#x26;" horiz-adv-x="1560" 
d="M467 881q-66 1 -128 -99t-63 -243q0 -27 3 -35q43 23 133 87t125 99q8 27 9 75q2 48 -20 82t-59 34zM988 721q-95 -1 -95 -103q0 -48 17 -77t18 -41q-4 -16 -30 -28t-54 -13q-28 0 -52 33t-24 73q0 92 123 185q27 20 92 53q61 20 80 20q106 0 321 -172q37 -31 58 -30
q37 -1 39 210h63q6 -37 6 -115t-11 -134q-11 -57 -48 -93q-6 -4 -11 -8q-4 -4 -10 -6t-8 -4l-24 -2q-39 0 -99 45q-6 6 -59 43l-72 51q-72 -264 -194 -405q-195 -227 -453 -228q-182 0 -305 125t-123 348t168 398q57 59 126 99t119 40t85 -41q48 -65 26 -156l5 -2
q258 242 258 428q0 29 -13 72q-4 33 21 57q22 29 60 29t60 -33t21 -82q0 -167 -241 -405t-543 -420q25 -150 125 -232t233 -83q178 0 311 143t193 391q-109 70 -159 70z" />
    <glyph glyph-name="quotesingle" unicode="'" horiz-adv-x="393" 
d="M479 1454l17 -14q-18 -60 -70 -198t-100 -238l-64 -27q63 334 66 432z" />
    <glyph glyph-name="parenleft" unicode="(" horiz-adv-x="692" 
d="M297 324q0 -414 176 -631l-47 -39q-135 106 -203 298t-67 398q4 373 168 670q166 297 440 436l33 -47q-223 -147 -361 -444t-139 -641z" />
    <glyph glyph-name="parenright" unicode=")" horiz-adv-x="681" 
d="M287 1417l47 39q147 -115 216 -330t44 -462q-14 -322 -174 -603q-158 -272 -424 -407l-33 47q217 143 346 415t144 576q23 213 -23 410q-43 202 -143 315z" />
    <glyph glyph-name="asterisk" unicode="*" horiz-adv-x="800" 
d="M883 1047v-58l-275 -31l64 -284l-51 -19l-125 275l-258 -139l-29 49l223 172l-201 223l35 43l236 -182l135 266l51 -19l-78 -278z" />
    <glyph glyph-name="plus" unicode="+" horiz-adv-x="1220" 
d="M1126 471h-430v-471h-116v471h-430v100h430v426h116v-426h430v-100z" />
    <glyph glyph-name="comma" unicode="," horiz-adv-x="481" 
d="M160 262q63 0 107 -60t38 -143q-10 -200 -289 -292l-22 59q172 74 175 176t-93 133q-16 10 -17 29q4 42 35 70t66 28z" />
    <glyph glyph-name="hyphen" unicode="-" horiz-adv-x="684" 
d="M610 518l-37 -112h-471l37 112h471z" />
    <glyph glyph-name="period" unicode="." horiz-adv-x="481" 
d="M182 -25q-43 0 -76 29q-26 33 -26 84t35 84q31 37 78 37t77 -31q27 -33 27 -82t-35 -88q-37 -33 -80 -33z" />
    <glyph glyph-name="slash" unicode="/" horiz-adv-x="659" 
d="M731 1360l-659 -1452h-109l660 1452h108z" />
    <glyph glyph-name="zero" unicode="0" 
d="M643 1233q-90 0 -164 -88q-71 -90 -115 -227q-83 -262 -92 -519q-10 -356 158 -356q90 0 160 96q114 142 180 514q20 137 25 246q12 334 -152 334zM646 1300q124 0 196 -71q131 -120 123 -391q-4 -284 -136 -553q-63 -131 -170 -224q-111 -86 -241 -86q-168 -1 -244 133
q-126 222 -35 613q37 141 101 272t172 219q110 88 234 88z" />
    <glyph glyph-name="one" unicode="1" 
d="M440 1143h-69l12 51q219 34 383 106l-205 -1052q-25 -129 1 -156t175 -39l-14 -53h-563l12 53q139 12 172 39q31 27 57 156l150 760q18 90 0 112t-111 23z" />
    <glyph glyph-name="two" unicode="2" 
d="M772 938q0 230 -217 231q-63 0 -117 -34q-45 -23 -92 -66q-47 -53 -74 -86l-43 43l131 164q118 110 266 110t234 -86t86 -231t-90 -260t-297 -291l-326 -285h365q84 0 131 21q45 29 100 108l50 -24q-14 -27 -115 -252h-758l2 43q266 225 420 373t256 284q88 130 88 238z
" />
    <glyph glyph-name="three" unicode="3" 
d="M893 1048q0 -106 -96 -184q-51 -41 -154 -106v-4q109 -31 176 -107q63 -80 64 -186q0 -201 -226 -359q-84 -59 -184 -93q-99 -34 -167 -34t-124 22q-56 21 -92 57q-81 78 25 147q23 16 41 -2q116 -121 248 -121t215 85t83 249q0 117 -67 182q-68 61 -166 61
q-49 0 -123 -18l-12 55q391 109 391 320q0 76 -45 127q-52 45 -118 45t-111 -29q-47 -23 -69 -45t-77 -84l-39 43l96 123q108 108 248 108t212 -74q72 -72 71 -178z" />
    <glyph glyph-name="four" unicode="4" 
d="M723 1092h-4q-266 -291 -533 -637h404zM944 455l-18 -88h-195l-24 -136q-23 -115 2 -141q18 -27 139 -37l-12 -53h-519l13 53q133 10 165 36t52 142l26 136h-528l12 55q442 545 764 866h88l-161 -833h196z" />
    <glyph glyph-name="five" unicode="5" 
d="M528 801q162 0 256 -95q94 -96 94 -222q1 -247 -257 -408q-156 -100 -312 -101q-70 0 -132 25q-62 26 -97 62t-25 71q4 41 54 72q25 14 45 -6q111 -121 251 -121t219 86q78 86 78 232t-69 222q-72 76 -215 76q-88 0 -189 -35l-14 19l168 598h580l-62 -148h-471l-115 -376
q154 49 213 49z" />
    <glyph glyph-name="six" unicode="6" 
d="M508 709q-94 0 -201 -70q-37 -98 -37 -245t54 -249t164 -102t184 113q70 115 70 252t-53 219q-52 82 -181 82zM915 465q0 -207 -137 -346q-135 -143 -310 -143t-273 118q-98 119 -99 307q0 301 182 529t480 323q96 29 260 60l12 -64q-111 -18 -227 -67
q-342 -139 -471 -461l2 -4l133 63q82 37 125 37q147 -2 235 -98t88 -254z" />
    <glyph glyph-name="seven" unicode="7" 
d="M483 1128q-96 0 -132 -28t-91 -129l-55 16q35 84 88 289h766l16 -25q-180 -299 -428 -688t-356 -567l-162 -21l-14 25q471 588 798 1128h-430z" />
    <glyph glyph-name="eight" unicode="8" 
d="M252 293q0 -109 58 -179t163 -71q104 0 175 73t71 183t-60 172q-53 63 -182 154q-225 -135 -225 -332zM606 1233q-82 -1 -140 -65t-58 -158q0 -148 172 -259q16 -11 30 -22q178 117 178 293q0 92 -49 154q-51 57 -133 57zM641 1300q121 0 213 -75q90 -80 90 -202
t-88 -194t-192 -139q113 -82 170 -155t57 -175q0 -162 -133 -270q-127 -115 -316 -115q-150 0 -254 84q-104 83 -104 219t111 232q66 53 227 156q-168 131 -169 280q-1 150 113 252t275 102z" />
    <glyph glyph-name="nine" unicode="9" 
d="M604 1233q-104 0 -178 -103q-70 -108 -70 -240t60 -208t168 -76q110 0 188 60q35 100 35 215t-29 221q-18 61 -64 96t-110 35zM626 1300q175 0 265 -124q88 -127 88 -299q0 -299 -176 -525t-441 -323q-172 -59 -268 -60l-10 60q215 41 400 185t272 378l-152 -72
q-61 -29 -117 -28q-125 0 -214 95t-89 247q0 188 133 327q134 139 309 139z" />
    <glyph glyph-name="colon" unicode=":" horiz-adv-x="481" 
d="M182 -25q-43 0 -76 29q-26 33 -26 84t35 84q31 37 78 37t77 -31q27 -33 27 -82t-35 -88q-37 -33 -80 -33zM275 610q-44 0 -74 31q-27 33 -27 83t34 85t79 35t73 -32t29 -82q0 -50 -35 -85t-79 -35z" />
    <glyph glyph-name="semicolon" unicode=";" horiz-adv-x="481" 
d="M168 5q0 101 -92 130q-16 10 -17 29q4 42 35 70t66 28q63 0 104 -59t41 -131q0 -113 -84 -191q-84 -73 -205 -114l-24 59q176 78 176 179zM270 610q-46 0 -74 32t-28 80t33 85q37 37 82 37t73 -32t29 -82q0 -50 -35 -85t-80 -35z" />
    <glyph glyph-name="less" unicode="&#x3c;" horiz-adv-x="1222" 
d="M1059 0l-926 471v96l926 471v-112l-805 -406v-4l805 -403v-113z" />
    <glyph glyph-name="equal" unicode="=" horiz-adv-x="1220" 
d="M1130 283h-993v102h993v-102zM1130 657h-993v103h993v-103z" />
    <glyph glyph-name="greater" unicode="&#x3e;" horiz-adv-x="1222" 
d="M1130 471l-925 -471v113l805 403v4l-805 406v112l925 -471v-96z" />
    <glyph glyph-name="question" unicode="?" horiz-adv-x="724" 
d="M164 92q0 51 35 91t87 40t81 -33t29 -88t-38 -91q-37 -36 -86 -36t-79 33q-29 33 -29 84zM546 1233q-58 0 -110 -25q-59 -32 -88 -56q-28 -24 -46 -24t-40 27q-57 71 37 135q87 70 193 70t184 -90q82 -84 82 -213t-135 -219q-162 -104 -238 -166q-45 -42 -45 -106
t72 -132l-41 -43q-63 35 -123 101q-55 68 -55 135q4 127 217 262q98 59 132 82t76 69q44 46 44 93q0 46 -31 71q-27 29 -85 29z" />
    <glyph glyph-name="at" unicode="@" horiz-adv-x="1511" 
d="M871 778q-72 0 -134 -65q-47 -53 -86 -153t-39 -194t41 -94q33 0 113 64q80 70 162 196q35 98 57 222q-42 24 -114 24zM111 408q-1 176 67 328t184 247q239 199 521 200t428 -151q151 -146 151 -364t-143 -373q-150 -150 -354 -150q-131 0 -84 150l24 111l-4 2
q-53 -84 -167 -173t-175 -90q-39 -1 -69 47t-29 134q0 86 44 197q44 110 128 188q150 139 328 145q21 2 81 -12t86 -15q-130 -508 -116 -573q8 -27 41 -25q115 4 213 117q100 108 100 312t-137 327q-141 119 -346 119q-283 0 -461 -192t-178 -486q0 -208 121 -365
q57 -80 170 -128t275 -48t300 72l20 -57q-193 -106 -427 -106t-414 163q-178 166 -178 449z" />
    <glyph glyph-name="A" unicode="A" horiz-adv-x="1359" 
d="M862 569l-82 531h-4q-199 -365 -284 -531h370zM1272 55l-15 -55h-483l14 55q100 10 125 33q20 23 13 92q-41 250 -52 303h-428q-122 -236 -154 -303t-14 -92t138 -33l-13 -55h-440l14 55q97 12 135 42t107 155l617 1091l63 17l57 -363q41 -262 131 -764q18 -111 47 -139
t138 -39z" />
    <glyph glyph-name="B" unicode="B" horiz-adv-x="1185" 
d="M903 412q0 272 -321 272h-101l-82 -434q-18 -109 19 -144q33 -37 141 -36q154 0 249 95t95 247zM600 752q166 0 257 78t91 206q0 127 -69 178q-70 52 -154 52t-113 -20t-41 -91l-75 -403h104zM748 1329q385 0 385 -280q1 -131 -91 -210t-243 -114v-4q135 -29 218 -108
t83 -199t-64 -207q-68 -87 -192 -147t-393 -60h-437l13 55q119 8 151 37t55 154l166 856q20 109 2 135q-25 27 -145 39l12 53h480z" />
    <glyph glyph-name="C" unicode="C" horiz-adv-x="1300" 
d="M731 -31q-266 0 -431 157t-165 433q0 355 243 579t607 224q178 0 350 -68q0 -31 -16 -313l-62 -6q-10 176 -83 246q-76 70 -236 69q-262 0 -433 -217t-171 -508q0 -229 110 -378t310 -148q142 1 242 83t196 234l53 -28q-39 -90 -88 -184t-74 -126q-211 -49 -352 -49z" />
    <glyph glyph-name="D" unicode="D" horiz-adv-x="1449" 
d="M1233 784q0 230 -126 354t-353 124q-96 0 -136 -21q-31 -20 -45 -102l-165 -875q-27 -135 23 -163t149 -27q301 0 477 205q176 211 176 505zM776 1329q311 0 481 -136t170 -419q0 -200 -88 -360t-249 -260q-238 -154 -627 -154h-445l15 55q117 12 149 41q31 29 54 150
l159 835q23 123 1 152t-142 43l12 53h510z" />
    <glyph glyph-name="E" unicode="E" horiz-adv-x="1144" 
d="M670 1262q-50 0 -64 -14t-26 -70l-84 -445h196q129 0 163 24t71 126h59l-78 -387h-57q4 111 -21 135q-27 23 -153 22h-197l-67 -358q-31 -162 10 -197q38 -28 180 -28t198 14t108 66t126 186l58 -21l-127 -315h-959l12 55q121 8 156 37t59 154l162 839q25 123 3 151
t-148 40l12 53h891q-2 -14 -39 -313l-59 -4q-1 129 -23 175t-61 58q-33 16 -142 17h-159z" />
    <glyph glyph-name="F" unicode="F" horiz-adv-x="1079" 
d="M668 1262q-50 0 -64 -14t-22 -68l-90 -469h213q153 0 189 46q19 24 50 101h60l-78 -393h-58q0 113 -24 141q-29 25 -156 25h-213l-72 -375q-23 -131 5 -162t165 -39l-12 -55h-541l15 55q113 10 145 41q31 31 56 160l157 817q25 135 4 160q-16 27 -141 43l12 53h885
l-8 -65q-2 -16 -6 -58t-8 -65q-4 -24 -15 -123l-59 -6q-3 121 -21 170t-57 64t-143 16h-168z" />
    <glyph glyph-name="G" unicode="G" horiz-adv-x="1394" 
d="M743 -31q-272 0 -440 156q-166 158 -166 430q0 352 242 580q244 227 622 227q176 0 363 -66q-17 -145 -25 -319l-59 -4q0 168 -82 244q-84 74 -246 73q-276 0 -444 -213q-172 -209 -172 -508q0 -238 117 -383t323 -145t238 143l39 193q23 115 -4 137q-23 23 -177 39
l13 53h499l-12 -51q-88 -16 -110 -42t-41 -136l-33 -170q-18 -100 -10 -162q-204 -49 -207 -49q-104 -27 -228 -27z" />
    <glyph glyph-name="H" unicode="H" horiz-adv-x="1519" 
d="M1612 1329l-13 -53q-117 -12 -147 -41t-55 -156l-158 -831q-25 -121 -2 -153t145 -40l-12 -55h-520l14 55q119 8 152 39t55 154l78 414h-670l-78 -414q-23 -131 0 -154q18 -29 146 -39l-12 -55h-508l12 55q113 10 143 40t51 153l160 831q25 125 4 156q-27 29 -149 41
l14 53h506l-12 -53q-111 -12 -143 -44t-52 -153l-63 -334h667l66 334q23 129 1 157t-140 40l12 53h508z" />
    <glyph glyph-name="I" unicode="I" horiz-adv-x="686" 
d="M778 1329l-12 -53q-121 -12 -150 -39t-49 -137l-166 -862q-20 -119 0 -146t150 -37l-12 -55h-525l15 55q117 8 151 37q31 29 53 146l166 862q20 109 -2 137q-25 27 -153 39l14 53h520z" />
    <glyph glyph-name="J" unicode="J" horiz-adv-x="657" 
d="M768 1329l-14 -53q-113 -16 -141 -42t-48 -147l-153 -821q-37 -199 -105 -315q-63 -117 -171 -181t-171 -65l-20 59q162 49 227 222q39 102 82 321l145 780q9 51 13 89t-17 61q-27 23 -45 26t-100 13l12 53h506z" />
    <glyph glyph-name="K" unicode="K" horiz-adv-x="1337" 
d="M1464 1329l-14 -53q-104 -14 -168 -39q-61 -31 -151 -103t-445 -378q184 -303 373 -563q59 -78 96 -103q45 -27 129 -35l-16 -55h-295q-358 559 -385 603q-51 82 -115 52l-72 -393q-25 -139 -3 -169t141 -38l-13 -55h-501l14 55q113 8 141 41q29 29 58 166l155 815
q25 129 5 157t-142 42l14 53h496l-12 -53q-119 -16 -147 -44t-52 -155l-70 -364q72 20 154 92q209 176 414 377q47 41 41 59q0 14 -56 25l-61 10l14 53h473z" />
    <glyph glyph-name="L" unicode="L" horiz-adv-x="1089" 
d="M991 342l58 -23q-63 -178 -131 -319h-904l13 55q119 8 149 37t53 146l168 856q23 121 0 143q-18 27 -145 39l12 53h512l-12 -53q-123 -10 -152 -39t-49 -143l-162 -848q-23 -115 23 -148q30 -26 194 -26t230 61q75 76 143 209z" />
    <glyph glyph-name="M" unicode="M" horiz-adv-x="1794" 
d="M1864 1329l-15 -53q-133 -12 -161 -40t-48 -155q-102 -711 -112 -814q-10 -105 -6 -133t12 -39t24 -17t33 -11q15 -5 21 -5t30 -4q24 -3 39 -3l-12 -55h-518l12 55q123 12 153 45t60 262q8 61 41 264q33 202 53 334t29 179h-6l-678 -1131h-45q-76 424 -209 1110h-6
l-147 -540q-86 -320 -96 -392t16 -96q33 -27 139 -35l-12 -55h-461l12 55q90 10 129 36t64 89q59 160 147 469l115 389q25 82 31 121q17 82 -62 103q-16 2 -115 14l15 53h342q125 -594 223 -1026l637 1026h332z" />
    <glyph glyph-name="N" unicode="N" horiz-adv-x="1443" 
d="M1569 1329l-13 -53q-94 -6 -122 -33q-33 -25 -58 -105t-76 -339l-155 -815h-62l-606 1085h-6l-106 -545q-47 -244 -54 -344q-2 -70 31 -92t143 -33l-12 -55h-469l12 55q80 2 121 31q37 24 65 106t81 338l106 504q12 63 12 113q-18 90 -77 110q-33 12 -121 19l12 53h295
l604 -1042h8l95 512q45 242 55 350q4 74 -29 95t-149 32l14 53h461z" />
    <glyph glyph-name="O" unicode="O" horiz-adv-x="1449" 
d="M864 1290q-152 0 -278 -116t-189 -287q-65 -166 -65 -369t92 -340t263 -137t297 120t186 291q60 172 60 366t-87 335q-93 137 -279 137zM881 1362q246 0 393 -164q152 -160 151 -424q0 -328 -213 -569q-213 -236 -532 -236q-244 0 -394 162t-151 420q1 327 217 569
t529 242z" />
    <glyph glyph-name="P" unicode="P" horiz-adv-x="1134" 
d="M620 618q124 0 240 82q125 90 125 310q0 112 -72 182q-68 74 -202 74q-49 0 -87 -16t-51 -97l-96 -508q71 -27 143 -27zM737 1329q430 0 430 -344q1 -137 -77 -241q-138 -186 -410 -205q-18 -2 -80 -2l-137 43l-62 -324q-25 -129 2 -159t166 -42l-12 -55h-543l13 55
q119 12 149 43q31 25 60 158l163 829q25 125 2 148q-16 27 -143 43l12 53h467z" />
    <glyph glyph-name="Q" unicode="Q" horiz-adv-x="1452" 
d="M1231 780q0 232 -88 371q-90 139 -279 139q-150 0 -276 -114q-125 -115 -191 -291q-65 -175 -65 -361t74 -317t212 -162l142 37q8 -4 49 -35q184 51 305 277q117 224 117 456zM135 547q0 332 215 571q213 244 531 244q246 0 393 -164q152 -160 152 -428t-154 -483
q-152 -215 -395 -287l26 -18q197 -146 455 -269l-17 -43q-131 2 -241 35q-129 33 -438 248l-29 20q-223 14 -361 174q-137 152 -137 400z" />
    <glyph glyph-name="R" unicode="R" horiz-adv-x="1226" 
d="M571 647q143 0 220 51q154 106 153 299q0 133 -63 201t-179 68q-66 0 -92 -21q-23 -14 -39 -90l-96 -508h96zM715 1329q201 0 291 -63q120 -84 120 -238t-90 -258q-90 -102 -227 -147q121 -312 250 -490q55 -69 139 -98l-16 -51h-21q-143 8 -212 50t-131 156t-136 297
q-24 61 -52 79t-81 18h-86l-60 -324q-25 -137 -2 -166q20 -31 146 -39l-12 -55h-515l13 55q119 12 147 43q29 27 58 162l157 823q25 127 5 154t-144 39l14 53h445z" />
    <glyph glyph-name="S" unicode="S" horiz-adv-x="958" 
d="M84 96q0 222 -6 303l55 7q17 -119 88 -242q45 -63 103 -90q56 -35 154 -35t166 72t67 173q0 101 -46 167t-145 141l-57 45q-57 45 -103 90t-87 119q-40 74 -40 149q0 160 116 263t300 104q122 0 228 -48q10 -5 24 -9t33 -11q-6 -80 -6 -196v-90l-60 -7q-31 293 -245 293
q-102 0 -168 -69q-61 -74 -61 -161t46 -151q45 -57 144 -133l61 -45q119 -90 178 -174q59 -90 60 -201q0 -176 -132 -284t-315 -107q-109 0 -210 40t-142 87z" />
    <glyph glyph-name="T" unicode="T" horiz-adv-x="1234" 
d="M598 1262q-127 0 -174 -12t-85 -56q-38 -43 -93 -178h-62q63 207 97 364h43q16 -35 36 -41q16 -10 64 -10h770q36 0 56 9t53 42h43q-20 -121 -48 -358l-61 -6q0 131 -25 182q-14 37 -59 50t-160 14h-123l-190 -1016q-23 -125 4 -154t164 -37l-12 -55h-557l12 55
q129 10 162 38t55 153l194 1016h-104z" />
    <glyph glyph-name="U" unicode="U" horiz-adv-x="1447" 
d="M690 -31q-199 0 -319 111q-158 147 -92 495l98 519q23 121 2 143q-20 27 -143 39l12 53h508l-13 -53q-121 -12 -147 -39q-31 -27 -51 -145l-94 -500q-51 -260 31 -387t259 -127q176 0 285 139q111 135 170 436l29 142q49 252 55 368q4 61 -33 82q-29 20 -147 31l12 53
h471l-12 -53q-96 -6 -129 -29q-35 -20 -51 -84q-39 -141 -82 -368l-31 -158q-78 -379 -244 -533q-145 -135 -344 -135z" />
    <glyph glyph-name="V" unicode="V" horiz-adv-x="1382" 
d="M1534 1329l-14 -53q-96 -12 -138 -40t-118 -153q-188 -305 -623 -1103h-59q-106 637 -199 1116q-25 117 -53 141q-27 29 -127 39l14 53h469l-14 -53l-56 -10q-59 -10 -73 -28t-2 -92q42 -262 80 -460t84 -440h4q403 726 459 844t44 142q-10 24 -77 34l-64 10l14 53h449z
" />
    <glyph glyph-name="W" unicode="W" horiz-adv-x="1943" 
d="M2066 1329l-12 -53q-100 -14 -137 -43q-35 -31 -94 -148q-90 -166 -523 -1105h-63l-166 1015h-6l-490 -1015h-63l-123 1099q-14 127 -37 158q-27 27 -129 39l13 53h462l-14 -53l-51 -8q-61 -8 -76 -31q-14 -25 -6 -104l88 -857h4l485 1029h60l170 -1031h4
q330 719 381 861q31 77 17 101t-91 32l-53 8l12 53h438z" />
    <glyph glyph-name="X" unicode="X" horiz-adv-x="1314" 
d="M1393 1329l-13 -53q-112 -12 -152 -35t-118 -104q-98 -113 -332 -398l228 -503q51 -117 86 -144t155 -37l-12 -55h-516l12 55l64 8q57 11 67 29t-10 70q-84 203 -190 438q-254 -326 -330 -438q-35 -47 -25 -68q8 -25 72 -33l49 -6l-12 -55h-465l14 55q90 8 141 31
q45 25 121 102q111 121 400 482l-197 444q-45 98 -78 125q-37 25 -139 37l14 53h473l-12 -53l-53 -10q-51 -8 -61 -22t12 -76q23 -60 159 -359q158 190 283 367q35 47 25 65q-6 16 -58 25l-59 10l12 53h445z" />
    <glyph glyph-name="Y" unicode="Y" horiz-adv-x="1251" 
d="M1405 1329l-14 -53q-99 -8 -141 -35t-140 -151t-313 -431q-37 -49 -49 -116l-58 -289q-25 -129 -2 -160q27 -27 164 -39l-12 -55h-547l14 55q123 8 155 37t60 162l56 276q10 61 -11 121q0 3 -8 23t-24 64t-38 100t-60 156q-39 100 -63 164t-52 83q-25 23 -125 35l12 53
h475l-14 -53l-72 -10q-55 -10 -61 -25q-10 -12 6 -61q82 -242 186 -494q229 315 330 481q31 51 21 69t-68 30l-64 8l15 55h442z" />
    <glyph glyph-name="Z" unicode="Z" horiz-adv-x="1204" 
d="M562 70q180 0 264 12t135 57q52 45 143 221l57 -24q-63 -207 -123 -336h-1022l-12 31q627 752 1014 1231h-324q-141 0 -192 -16t-96 -66q-45 -51 -97 -187l-59 6q53 195 84 381h43q18 -35 37 -41q18 -10 65 -10h772l13 -26q-451 -543 -1006 -1221q124 -12 304 -12z" />
    <glyph glyph-name="bracketleft" unicode="[" horiz-adv-x="692" 
d="M786 1442l-14 -56q-158 -14 -192 -42t-60 -152l-244 -1274q-25 -127 3 -151q25 -29 186 -43l-14 -56h-351l342 1774h344z" />
    <glyph glyph-name="backslash" unicode="\" horiz-adv-x="768" 
d="M666 -92h-109l-393 1452h108z" />
    <glyph glyph-name="bracketright" unicode="]" horiz-adv-x="692" 
d="M655 1442l-340 -1774h-346l15 56q164 16 196 42t56 152l245 1274q23 128 -4 154t-186 40l14 56h350z" />
    <glyph glyph-name="asciicircum" unicode="^" horiz-adv-x="1130" 
d="M1030 432h-121l-319 709l-320 -709h-112l393 844h86z" />
    <glyph glyph-name="underscore" unicode="_" horiz-adv-x="1024" 
d="M1024 -256h-1024v102h1024v-102z" />
    <glyph glyph-name="grave" unicode="`" horiz-adv-x="819" 
d="M659 1024l-59 -18q-125 240 -182 335l8 19q20 8 78 17t71 7q57 -251 84 -360z" />
    <glyph glyph-name="a" unicode="a" horiz-adv-x="1003" 
d="M305 106q57 0 191 144t190 258q14 55 68 295q-60 29 -144 29t-139 -44q-102 -74 -160 -231q-61 -154 -61 -315q0 -64 16 -100t39 -36zM80 228q0 134 68 288t164 233q206 169 395 171q55 0 121 -14t83 -13l7 -8q-72 -272 -142 -666q-18 -88 2 -88t62 33q45 31 88 74
l24 -50q-80 -98 -167 -155t-132 -58q-70 0 -37 181l41 194h-4q-113 -160 -246 -267t-208 -108q-45 -1 -82 59t-37 194z" />
    <glyph glyph-name="b" unicode="b" horiz-adv-x="995" 
d="M414 70q173 0 286 249q76 159 76 323t-69 165q-55 0 -166 -90t-207 -228q-18 -55 -40 -177t18 -182t102 -60zM524 1458q25 0 11 -63q-74 -297 -183 -783h4q127 156 247 232t193 76q74 0 112 -60t38 -166q0 -168 -89 -342t-226 -264q-162 -113 -309 -113q-46 0 -96 26
t-68 62q-47 78 -13 256q14 70 86 395t86 401q15 75 27 133t2 74q-10 15 -72 15l-59 2l4 50q135 16 213 43q78 26 92 26z" />
    <glyph glyph-name="c" unicode="c" horiz-adv-x="782" 
d="M514 823q-96 0 -166 -135q-90 -164 -90 -371q0 -106 39 -163q39 -58 107 -58t149 48q82 48 135 104l31 -45q-92 -109 -205 -168t-209 -59t-155 77q-60 78 -60 217q0 140 57 274t154 224q76 66 162 104q171 88 274 17q45 -33 47 -72q0 -59 -67 -94q-25 -14 -45 12
q-62 88 -158 88z" />
    <glyph glyph-name="d" unicode="d" horiz-adv-x="1040" 
d="M317 109q72 0 207 138t191 238l65 293q-60 53 -156 53t-153 -43q-97 -74 -157 -230t-60 -303q0 -146 63 -146zM84 236q0 136 63 284t175 242q70 63 182 110q112 48 177 48q66 0 124 -23l67 338q16 72 2 84q-10 16 -79 16h-66l6 51q151 18 260 60q43 12 54 12q27 0 14 -57
q-166 -711 -254 -1204q-14 -68 8 -68q46 0 146 100l28 -47q-74 -84 -164 -149q-96 -57 -137 -58q-76 0 -37 191l37 174l-4 -2q-109 -143 -270 -268q-115 -94 -199 -95q-55 0 -94 66q-39 59 -39 195z" />
    <glyph glyph-name="e" unicode="e" horiz-adv-x="819" 
d="M645 723q-1 51 -29 82t-72 31t-92 -29t-106 -114t-80 -236q379 102 379 266zM90 272q0 160 66 299q61 141 180 234q152 115 282 115q78 0 132 -48q49 -49 49 -116q0 -227 -541 -363q-4 -33 -4 -65q0 -98 37 -165t123 -67q135 0 299 158l35 -47q-219 -231 -433 -232
q-89 0 -157 68q-68 69 -68 229z" />
    <glyph glyph-name="f" unicode="f" horiz-adv-x="555" 
d="M750 1458q58 0 96 -28q39 -28 35 -60q0 -47 -52 -84q-31 -20 -51 2q-68 72 -129 72t-108 -104t-90 -369h231l-43 -64l-205 -20q-115 -742 -217 -971q-59 -139 -147 -229q-121 -129 -232 -129q-49 0 -89 28q-89 61 18 146q20 18 38 0q53 -51 117 -51t101 41q70 78 143 514
q46 244 110 655h-170l-6 22l62 58h131q55 274 172 407q71 76 149 120t136 44z" />
    <glyph glyph-name="g" unicode="g" horiz-adv-x="860" 
d="M76 -262q0 -74 82 -126t196 -52q113 0 183 45t69 106q0 74 -149 162q-92 55 -154 88q-227 -113 -227 -223zM410 305q90 0 160 95t71 249q0 88 -35 146q-37 53 -102 53q-88 0 -158 -102t-70 -257q0 -90 38 -137t96 -47zM332 158q0 -43 141 -116t219 -144q63 -70 64 -131
q0 -119 -162 -205q-158 -88 -315 -88t-267 67q-109 70 -106 162q4 121 344 295q-78 51 -76 100q0 53 125 127q-178 39 -178 250q0 102 47 189q41 90 125 153q127 103 250 103t186 -58q158 4 232 49l14 -39q-78 -84 -146 -96q-25 -6 -53 -6q16 -49 17 -115q0 -190 -156 -313
q-106 -88 -264 -119q-41 -35 -41 -65z" />
    <glyph glyph-name="h" unicode="h" horiz-adv-x="1046" 
d="M510 1458q25 0 8 -72l-184 -849h4q168 225 379 340q80 43 137 43q115 0 57 -261l-106 -458q-14 -74 6 -74q45 0 141 94l27 -49q-74 -86 -161 -141t-134 -56q-80 0 -35 199l109 475q35 145 -17 146q-72 -1 -213 -135t-221 -273q-37 -158 -76 -373q-80 -14 -145 -39l-14 17
q166 745 258 1229q14 78 5 94t-73 20l-59 2l6 49q136 12 253 58q34 14 48 14z" />
    <glyph glyph-name="i" unicode="i" horiz-adv-x="559" 
d="M184 -25q-76 0 -26 201l127 524q18 66 -2 66q-39 0 -140 -88l-24 47q84 80 175 137t136 58q57 0 21 -162l-142 -565q-16 -66 4 -66q38 0 144 96l26 -43q-51 -66 -151 -135q-94 -70 -148 -70zM455 1313q70 0 82 -92q0 -51 -32 -85t-74 -34q-41 0 -63 24t-24 65
q-2 42 29 83q33 39 82 39z" />
    <glyph glyph-name="j" unicode="j" horiz-adv-x="544" 
d="M301 725v20q0 9 -4 13h-4q-2 2 -10 2t-56 -31q-61 -45 -88 -72l-26 48q90 96 184 155t139 60q58 0 22 -188t-117 -582q-81 -392 -245 -547q-133 -129 -219 -129q-33 0 -61 20t-27 45q0 51 49 90q23 20 45 9q57 -33 101 -33t77 51q35 49 62 166t97 474t73 374l6 41
q2 6 2 14zM435 1327q89 -1 89 -101q0 -42 -30 -76t-72 -34q-41 0 -66 26q-26 26 -26 66t30 82q31 37 75 37z" />
    <glyph glyph-name="k" unicode="k" horiz-adv-x="962" 
d="M520 1458q24 0 12 -54t-47 -205t-55 -245t-56 -252t-48 -215h2q76 88 176 185q242 248 358 248q39 0 64 -19q54 -54 -19 -127q-23 -16 -33 -10q-39 16 -77 16q-113 0 -267 -170q59 -207 168 -403q47 -98 81 -98t116 94l35 -41q-119 -186 -225 -187q-33 0 -65 27t-92 154
t-134 336q-100 -106 -115 -132q-15 -74 -31 -152t-25 -124q-9 -47 -14 -70q-98 -20 -147 -39l-14 13q150 637 278 1255q12 61 1 75t-75 17l-63 2l10 49q157 20 252 60q41 12 49 12z" />
    <glyph glyph-name="l" unicode="l" horiz-adv-x="509" 
d="M510 1458q26 0 12 -64t-58 -273q-44 -210 -76 -357q-32 -148 -71 -334t-52 -244t11 -59q14 0 70 36t94 77l31 -45q-76 -91 -171 -155t-144 -65q-80 0 -29 248q74 340 213 1010q16 66 0 84t-86 18l-55 2l8 49q104 14 199 43q96 29 104 29z" />
    <glyph glyph-name="m" unicode="m" horiz-adv-x="1611" 
d="M774 793q-68 0 -214 -160t-200 -268q-35 -125 -84 -353q-72 -8 -147 -37l-14 15q98 373 170 696q20 88 -2 88q-35 0 -142 -100l-24 49q86 92 166 144t123 53q78 0 16 -252l-35 -146h4q176 248 367 357q72 41 127 41q121 0 49 -312l-19 -84h5q174 246 374 357
q70 39 125 39q113 0 43 -297l-100 -428q-16 -66 2 -66q18 -1 63 29t78 63l27 -49q-76 -84 -161 -140t-128 -57q-82 0 -33 211l113 473q31 133 -20 134q-70 0 -214 -157t-204 -271q-35 -135 -80 -353q-76 -8 -150 -37l-12 15q115 466 141 590t27 170q-6 43 -37 43z" />
    <glyph glyph-name="n" unicode="n" horiz-adv-x="1089" 
d="M281 768q-39 0 -134 -92l-26 49q82 90 164 142t125 53q72 0 16 -228l-43 -178h4q170 238 377 360q76 45 137 46q117 0 45 -293q-28 -119 -64 -270t-36 -156q-14 -74 4 -74q33 0 135 96l29 -49q-88 -94 -168 -146t-121 -53q-82 0 -33 213q6 27 19 77q12 50 23 97t38 158
l31 123q37 147 -17 148q-66 1 -206 -143t-224 -286q-55 -227 -80 -346q-88 -18 -147 -41l-12 17q117 467 166 694q20 82 -2 82z" />
    <glyph glyph-name="o" unicode="o" horiz-adv-x="962" 
d="M438 57q132 0 221 201q68 147 68 338q0 123 -47 182q-43 63 -119 64q-37 0 -78 -19q-74 -33 -147 -168q-70 -143 -70 -350q0 -111 45 -182q49 -66 127 -66zM378 -25q-150 0 -218 91q-66 94 -66 229q0 190 88 340q90 149 220 217t225 68q129 0 201 -84t71 -230
q0 -146 -57 -280q-57 -135 -162 -222q-152 -129 -302 -129z" />
    <glyph glyph-name="p" unicode="p" horiz-adv-x="995" 
d="M422 66q113 0 229 174q115 176 115 364q0 127 -57 177t-141 50t-134 -14l-139 -682q14 -23 55 -49q41 -20 72 -20zM643 920q155 0 225 -71t70 -212q0 -225 -174 -424q-164 -182 -381 -238q-74 0 -121 21l-57 -289q-18 -86 -4 -113q18 -25 92 -32l49 -4l-6 -54l-473 -24
l8 53q94 18 129 45q31 31 51 123q57 263 105 493t71 334t36 166t18 78q-61 -18 -166 -74l-15 52q74 53 197 102l22 92q57 68 150 119l20 -10l-36 -158q86 25 190 25z" />
    <glyph glyph-name="q" unicode="q" horiz-adv-x="991" 
d="M628 829q-205 0 -317 -272q-61 -154 -61 -299t61 -145q70 1 193 117t198 235q35 127 72 334q-57 30 -146 30zM78 232q0 130 65 278q66 147 154 225t177 119t153 53q122 34 284 -18l33 -8q-57 -231 -96 -449l-133 -717q-16 -102 -1 -124t87 -29l49 -6l-8 -52l-473 -24
l10 53l33 6q68 14 100 43q27 31 45 121l131 633h-4q-96 -123 -262 -258q-133 -102 -215 -103q-53 -1 -91 63t-38 194z" />
    <glyph glyph-name="r" unicode="r" horiz-adv-x="749" 
d="M616 754q-38 0 -100 -86q-104 -152 -145 -254q-29 -125 -82 -402q-68 -8 -146 -37l-16 17q98 399 149 690q14 88 -4 88q-12 0 -54 -26t-91 -72l-27 47q74 84 158 142t129 59q76 0 23 -238l-21 -102h6q76 145 162 247q86 93 143 93t91 -52q38 -71 -56 -147q-29 -18 -45 -2
q-36 35 -74 35z" />
    <glyph glyph-name="s" unicode="s" horiz-adv-x="690" 
d="M231 -25q-71 -1 -139 47t-68 99t60 88q35 16 51 -6q82 -125 197 -125q57 0 96 35t39 88q1 78 -105 161t-149 137t-43 124q0 106 106 198q49 43 115 71q67 28 123 28t102 -37t48 -84q0 -47 -52 -78q-27 -14 -45 8q-74 92 -159 92q-43 0 -78 -30q-33 -33 -33 -85t33 -88
q32 -43 108 -99q164 -121 164 -236t-123 -209q-119 -99 -248 -99z" />
    <glyph glyph-name="t" unicode="t" horiz-adv-x="628" 
d="M328 119q27 0 84 38t100 81l29 -43q-66 -76 -161 -148t-169 -72q-25 0 -43 25q-42 75 0 246l121 561h-152l-6 18l51 62h123l47 194l156 127l18 -12l-71 -309h237l-53 -70l-203 -10l-121 -565q-25 -123 13 -123z" />
    <glyph glyph-name="u" unicode="u" horiz-adv-x="1091" 
d="M352 115q78 0 214 144t210 280q31 125 74 327l141 54h23q-92 -362 -160 -713q-14 -80 4 -80q18 1 64 33t86 73l26 -49q-72 -90 -161 -149t-136 -60q-80 0 -30 218q20 92 38 180h-4q-168 -221 -329 -334q-88 -63 -166 -64q-131 0 -68 261q25 104 111 471q14 69 -6 69
t-144 -98l-22 49q88 88 174 140t127 53q53 0 41 -72q0 -24 -24 -128t-57 -254t-50 -216q-31 -135 24 -135z" />
    <glyph glyph-name="v" unicode="v" horiz-adv-x="915" 
d="M770 719q0 55 -22 90q-8 25 0 51q29 60 77 60q49 0 73 -33t26 -84q0 -98 -127 -275q-184 -258 -424 -553h-56q-10 291 -38 637q-12 158 -37 158t-121 -108l-33 45q57 86 129 149q66 63 115 64q74 0 90 -228l27 -514h4q317 397 317 541z" />
    <glyph glyph-name="w" unicode="w" horiz-adv-x="1372" 
d="M434 233h4q4 6 119 200t143 247q59 98 119 209h51q0 -41 31 -332q17 -211 35 -371h4q289 395 289 529q1 51 -17 85t-4 60q29 60 76 60t72 -32q24 -32 24 -94t-84 -206q-90 -141 -432 -613h-57q-20 287 -57 639h-5q-66 -102 -391 -639h-53q-4 258 -20 660q-6 135 -31 135
t-123 -104l-35 41q165 211 262 213q68 0 74 -224t6 -463z" />
    <glyph glyph-name="x" unicode="x" horiz-adv-x="968" 
d="M385 920q39 0 63 -48t68 -176l37 -112q133 192 208 264t128 72t76 -28t21 -64t-28 -58q-27 -29 -46 -29t-35 17q-18 25 -48 24q-43 0 -122 -102q-72 -80 -134 -168l66 -205q59 -188 105 -188t147 119l35 -41q-143 -221 -260 -222q-76 0 -136 189l-63 198
q-141 -223 -222 -305t-153 -82q-38 0 -66 28t-27 69t28 67q27 31 50 31t37 -20t48 -21q78 0 282 309l-69 213q-37 129 -68 129q-39 1 -131 -116l-35 43q147 213 244 213z" />
    <glyph glyph-name="y" unicode="y" horiz-adv-x="905" 
d="M768 713q0 49 -23 100q-10 25 5 51q29 56 76 56q46 0 68 -33t21 -80q2 -84 -71 -217q-158 -279 -371 -580q-215 -311 -369 -481l-213 -55l-16 45q276 180 481 458q-2 262 -63 668q-18 127 -43 127q-14 0 -47 -35q-35 -31 -72 -84l-35 47q55 90 124 155t118 65
q80 0 104 -240q27 -200 47 -526h5q194 302 234 406t40 153z" />
    <glyph glyph-name="z" unicode="z" horiz-adv-x="856" 
d="M386 778q-74 0 -120 -41q-39 -39 -94 -133l-51 25q51 115 84 166q79 121 149 121t217 -25q99 -21 159 -21t132 78l41 -43q-64 -89 -372 -405q-81 -84 -126 -130t-101 -106q-56 -59 -73 -76q61 6 156 -32q145 -49 184 -50q96 0 209 175l45 -37q-78 -154 -143 -219
t-136 -65t-276 97q-84 43 -127 13q-31 -20 -65 -70q-16 -20 -25 -18q-44 22 -13 82q30 62 92 128t297 306q234 240 267 274q-66 -12 -151 -3t-159 9z" />
    <glyph glyph-name="braceleft" unicode="{" horiz-adv-x="692" 
d="M455 381q0 -43 -13 -86q-8 -43 -23 -87t-25 -81t-13 -44q-2 -7 -5 -21t-17 -56q-33 -101 -33 -166q0 -111 137 -129l-12 -55q-252 0 -252 194q0 84 60 296t60 255q0 115 -149 123l12 60q123 4 159 61q37 57 49 104q12 45 26 207t33 244q48 254 335 254l-4 -55
q-104 -12 -145 -60q-41 -41 -54 -113t-24 -208q-6 -150 -18 -223q-39 -199 -209 -236l-2 -8q127 -31 127 -170z" />
    <glyph glyph-name="bar" unicode="|" horiz-adv-x="489" 
d="M336 -512h-129v2048h129v-2048z" />
    <glyph glyph-name="braceright" unicode="}" horiz-adv-x="692" 
d="M438 559q-193 50 -89 352q81 237 89 328q8 137 -135 160l14 55q95 0 175 -39q86 -46 76 -188q-5 -73 -59 -259t-59 -239t29 -98q35 -41 119 -47l-12 -58q-59 -2 -103 -22q-68 -23 -90 -103q-20 -40 -36 -224q-17 -185 -35 -267q-45 -254 -340 -254l8 55q98 14 143 60
q41 47 55 117t28 240q14 169 15 187q39 199 205 236z" />
    <glyph glyph-name="asciitilde" unicode="~" horiz-adv-x="1153" 
d="M401 487q-119 0 -184 -172l-74 52q88 223 269 223q102 0 236 -79t202 -79t108 39q39 39 74 131l76 -41q-72 -231 -260 -231q-100 0 -234 78t-213 79z" />
    <glyph glyph-name="uni0401" unicode="&#x401;" horiz-adv-x="1144" 
d="M965 1616q84 0 86 -86q0 -47 -29 -80t-69 -33q-41 0 -63 24q-22 25 -22 65t29 75q25 35 68 35zM586 1616q41 0 62 -24q22 -24 22 -66t-29 -76q-29 -33 -69 -33t-62 24q-22 25 -23 63q0 38 29 75t70 37zM670 1262q-50 0 -64 -14t-26 -70l-84 -445h196q129 0 163 24t71 126
h59l-78 -387h-57q4 111 -21 135q-27 23 -153 22h-197l-67 -358q-31 -162 10 -197q38 -28 180 -28t198 14t108 66t126 186l58 -21l-127 -315h-959l12 55q121 8 156 37t59 154l162 839q25 123 3 151t-148 40l12 53h891q-2 -14 -39 -313l-59 -4q-1 129 -23 175t-61 58
q-33 16 -142 17h-159z" />
    <glyph glyph-name="uni0402" unicode="&#x402;" horiz-adv-x="1449" 
d="M997 786q169 0 267 -110t98 -272q0 -164 -62 -294t-161 -220q-100 -90 -203 -144q-98 -57 -209 -90l-22 57q199 88 331 258q139 172 140 412q0 147 -70 230t-186 83q-82 0 -175 -34l-75 -408q-25 -129 2 -160t176 -39l-12 -55h-586l10 55q143 10 178 39q33 31 62 160
l194 1008h-112q-109 0 -160 -16t-86 -59q-35 -42 -100 -175l-58 4q49 160 96 364h39q12 -35 35 -41q16 -10 68 -10h803q69 0 114 51h45q-29 -133 -51 -364l-59 -6q-6 129 -31 188q-14 39 -57 51t-152 13h-168l-102 -531q156 55 239 55z" />
    <glyph glyph-name="uni0403" unicode="&#x403;" horiz-adv-x="1028" 
d="M1059 1546l-4 -16l-385 -129l-27 49q201 123 330 209q14 -2 51 -45q33 -45 35 -68zM682 1262q-59 0 -74 -13q-14 -8 -24 -63l-181 -930q-25 -135 -1 -163t159 -38l-12 -55h-520l10 55q109 8 139 37t58 164l159 819q6 29 13 68l6 39q0 37 -17 55q-15 25 -31 26t-35 3
t-69 8l14 55h859q-5 -43 -17 -145t-18 -160l-58 -6q-10 150 -40 196t-173 48h-147z" />
    <glyph glyph-name="uni0404" unicode="&#x404;" horiz-adv-x="1290" 
d="M336 565q0 -229 96 -375t297 -151q238 -2 381 211q43 66 76 66t42 -34t-9 -73q-37 -84 -169 -162t-337 -78q-258 0 -420 158t-158 432q0 240 113 426q113 185 297 281t403 96q121 0 217 -26q95 -26 109 -29q14 -5 23 -7t13 -4t7 -2l-5 -122q-3 -74 -9 -185l-58 -6
q-8 168 -86 240t-237 71q-228 0 -374 -148t-200 -409l711 15l-29 -109l-690 14q-4 -37 -4 -90z" />
    <glyph glyph-name="uni0405" unicode="&#x405;" horiz-adv-x="958" 
d="M84 96q0 222 -6 303l55 7q17 -119 88 -242q45 -63 103 -90q56 -35 154 -35t166 72t67 173q0 101 -46 167t-145 141l-57 45q-57 45 -103 90t-87 119q-40 74 -40 149q0 160 116 263t300 104q122 0 228 -48q10 -5 24 -9t33 -11q-6 -80 -6 -196v-90l-60 -7q-31 293 -245 293
q-102 0 -168 -69q-61 -74 -61 -161t46 -151q45 -57 144 -133l61 -45q119 -90 178 -174q59 -90 60 -201q0 -176 -132 -284t-315 -107q-109 0 -210 40t-142 87z" />
    <glyph glyph-name="uni0406" unicode="&#x406;" horiz-adv-x="686" 
d="M778 1329l-12 -53q-121 -12 -150 -39t-49 -137l-166 -862q-20 -119 0 -146t150 -37l-12 -55h-525l15 55q117 8 151 37q31 29 53 146l166 862q20 109 -2 137q-25 27 -153 39l14 53h520z" />
    <glyph glyph-name="uni0407" unicode="&#x407;" horiz-adv-x="686" 
d="M732 1616q83 0 83 -90q0 -42 -28 -75q-27 -34 -69 -34t-64 24q-22 25 -22 63t30 75q28 37 70 37zM351 1616q83 0 83 -90q0 -42 -28 -75q-28 -34 -69 -34q-42 0 -64 24q-21 25 -21 63t28 75t71 37zM778 1329l-12 -53q-121 -12 -150 -39t-49 -137l-166 -862
q-20 -119 0 -146t150 -37l-12 -55h-525l15 55q117 8 151 37q31 29 53 146l166 862q20 109 -2 137q-25 27 -153 39l14 53h520z" />
    <glyph glyph-name="uni0408" unicode="&#x408;" horiz-adv-x="657" 
d="M768 1329l-14 -53q-113 -16 -141 -42t-48 -147l-153 -821q-37 -199 -105 -315q-63 -117 -171 -181t-171 -65l-20 59q162 49 227 222q39 102 82 321l145 780q9 51 13 89t-17 61q-27 23 -45 26t-100 13l12 53h506z" />
    <glyph glyph-name="uni0409" unicode="&#x409;" horiz-adv-x="1818" 
d="M1165 70q177 0 279 101t106 267q0 287 -315 287q-64 0 -119 -8l-88 -467q-20 -100 10 -141q31 -39 127 -39zM1118 0h-467l15 55q109 8 141 41q33 29 57 164l178 914q8 53 2 69q-12 14 -57 14h-254q-45 0 -61 -8q-12 -16 -21 -51q-156 -817 -420 -1124q-89 -104 -159 -104
t-111 22l4 33q129 66 242 213q84 106 186 358q98 252 154 537q17 87 -11 109t-165 32l12 55h1028l-10 -55q-131 -8 -162 -38t-55 -161l-56 -289q106 10 181 11q213 0 323 -92q110 -93 110 -243q-1 -150 -71 -251q-75 -99 -201 -155t-352 -56z" />
    <glyph glyph-name="uni040A" unicode="&#x40a;" horiz-adv-x="1933" 
d="M1374 678h-119l-79 -422q-23 -111 8 -147q25 -37 119 -37q170 4 276 95t107 247q0 264 -312 264zM1442 756q430 0 436 -330q0 -236 -229 -352q-154 -74 -404 -74h-448l12 55q115 8 145 37t58 166l80 420h-584l-80 -416q-27 -129 -4 -164t145 -43l-10 -55h-518l12 55
q119 10 152 41q29 31 55 166l154 807q16 78 16 107q6 33 -12 57q-14 25 -46 32t-96 9l13 55h510l-11 -55q-122 -10 -152 -40t-54 -165l-60 -313h586l57 307q29 139 6 170q-18 33 -137 41l13 55h501l-10 -55q-121 -8 -152 -39t-59 -178l-55 -301h170z" />
    <glyph glyph-name="uni040B" unicode="&#x40b;" horiz-adv-x="1560" 
d="M569 1262q-119 0 -165 -18t-80 -62q-57 -86 -91 -154h-53q53 190 92 352h39q12 -35 33 -41q16 -10 59 -10h836q66 0 115 51h45q-33 -156 -51 -346l-60 -6q0 104 -17 154t-59 64q-42 15 -159 16h-187l-102 -541q199 86 319 86q160 0 232 -92t39 -273l-37 -194
q-23 -129 -2 -154q18 -29 133 -39l-12 -55h-486l11 55q102 8 135 39q31 31 55 154l37 196q53 264 -199 265q-113 0 -241 -62l-74 -393q-27 -123 -2 -158q27 -31 159 -41l-14 -55h-557l12 55q139 10 174 41t60 158l194 1008h-131z" />
    <glyph glyph-name="uni040C" unicode="&#x40c;" horiz-adv-x="1290" 
d="M756 1450l329 209q16 -2 50 -45q30 -43 36 -68l-6 -16l-383 -129zM1036 0q-88 0 -136 51t-98 209q-8 30 -20 62t-31 86t-26 73q-39 111 -94 158q-59 39 -152 39l-78 -412q-16 -82 -16 -110q-6 -35 13 -60t48 -30q74 -8 97 -11l-11 -55h-518l13 55q115 8 147 39t59 172
l166 838q23 109 -2 135q-20 27 -147 37l12 53h508l-12 -53q-111 -8 -142 -36t-51 -136l-73 -367q156 6 256 84q55 45 107 115t166 248t232 178q49 0 71 -21t22 -49t-26 -47q-26 -18 -69 -18h-28l-35 -2q-24 -10 -62 -43q-38 -34 -75 -97q-9 -9 -59 -81t-60 -86
q-96 -139 -232 -199l-2 -6q111 -27 189 -207q27 -51 117 -293q34 -90 76 -119t126 -39l-10 -55h-160z" />
    <glyph glyph-name="uni040E" unicode="&#x40e;" horiz-adv-x="1239" 
d="M799 1425q-80 0 -131 41q-88 78 -19 176l21 29h45q-13 -137 115 -137t206 141l58 -18q-84 -231 -293 -232h-2zM389 74q106 0 211 217q6 43 -17 132q-45 174 -127 419q-81 245 -88 269t-10 32q-20 75 -54 99t-124 32l13 55h456l-10 -55l-70 -12q-37 -6 -46 -26t7 -81
l203 -670q244 428 346 629q41 88 33 115q-10 27 -65 35l-74 10l12 55h436l-10 -55q-102 -12 -137 -45q-36 -27 -102 -135t-259 -435q-180 -313 -251 -432q-182 -287 -349 -286q-109 0 -133 75q-8 23 0 58q14 31 35 47q35 25 64 0q57 -47 110 -47z" />
    <glyph glyph-name="uni040F" unicode="&#x40f;" horiz-adv-x="1499" 
d="M903 0q-84 0 -117 -25q-36 -19 -64 -99t-85 -282h-66q13 228 15 290t-21 91q-25 25 -98 25h-451l13 55q117 8 151 41t56 158l159 825q25 127 0 157t-143 38l12 55h514l-10 -55q-121 -10 -152 -39t-55 -156l-164 -864q-18 -96 4 -119q18 -25 113 -24h328q115 0 145 22
q33 18 51 121l166 866q20 123 0 154q-25 31 -143 39l12 55h516l-12 -55q-117 -8 -152 -37q-31 -31 -55 -158l-160 -829q-25 -125 0 -155t152 -40l-12 -55h-447z" />
    <glyph glyph-name="uni0410" unicode="&#x410;" horiz-adv-x="1359" 
d="M862 569l-82 531h-4q-199 -365 -284 -531h370zM1272 55l-15 -55h-483l14 55q100 10 125 33q20 23 13 92q-41 250 -52 303h-428q-122 -236 -154 -303t-14 -92t138 -33l-13 -55h-440l14 55q97 12 135 42t107 155l617 1091l63 17l57 -363q41 -262 131 -764q18 -111 47 -139
t138 -39z" />
    <glyph glyph-name="uni0411" unicode="&#x411;" horiz-adv-x="1175" 
d="M483 709l-86 -463q-20 -102 9 -140t116 -38q176 0 281 104q111 100 106 268q0 276 -311 277q-60 0 -115 -8zM674 1262q-54 0 -70 -10t-26 -68l-80 -406q92 10 176 10q210 0 318 -90t108 -229q0 -270 -199 -375q-177 -94 -418 -94h-458l12 55q113 10 141 39t58 170
l157 805q16 78 17 111q6 32 -14 56t-48 30q-49 6 -94 10l14 53h854q-18 -117 -32 -291l-62 -6q-6 125 -39 177t-174 53h-141z" />
    <glyph glyph-name="uni0412" unicode="&#x412;" horiz-adv-x="1185" 
d="M903 412q0 272 -321 272h-101l-82 -434q-18 -109 19 -144q33 -37 141 -36q154 0 249 95t95 247zM600 752q166 0 257 78t91 206q0 127 -69 178q-70 52 -154 52t-113 -20t-41 -91l-75 -403h104zM748 1329q385 0 385 -280q1 -131 -91 -210t-243 -114v-4q135 -29 218 -108
t83 -199t-64 -207q-68 -87 -192 -147t-393 -60h-437l13 55q119 8 151 37t55 154l166 856q20 109 2 135q-25 27 -145 39l12 53h480z" />
    <glyph glyph-name="uni0413" unicode="&#x413;" horiz-adv-x="1028" 
d="M682 1262q-59 0 -74 -13q-14 -8 -24 -63l-181 -930q-25 -135 -1 -163t159 -38l-12 -55h-520l10 55q109 8 139 37t58 164l159 819q6 29 13 68l6 39q0 37 -17 55q-15 25 -31 26t-35 3t-69 8l14 55h859q-5 -43 -17 -145t-18 -160l-58 -6q-10 150 -40 196t-173 48h-147z" />
    <glyph glyph-name="uni0414" unicode="&#x414;" horiz-adv-x="1310" 
d="M973 1260h-223q-76 0 -88 -11q-16 -6 -27 -53q-133 -700 -336 -1073q-29 -49 29 -49h379q71 0 97 24t44 111l178 911q18 98 10 117q-6 23 -63 23zM1042 70h144l-137 -426h-62l17 225q6 78 -9 106q-18 25 -73 25h-695q-63 0 -88 -25q-25 -20 -78 -129l-94 -202h-59l86 426
h94q47 0 74 39q119 162 219 452q96 293 149 578q14 68 -1 90t-87 35l-84 10l13 55h1026l-11 -55q-118 -8 -148 -39t-58 -172l-174 -903q-10 -58 -4 -74t40 -16z" />
    <glyph glyph-name="uni0415" unicode="&#x415;" horiz-adv-x="1144" 
d="M670 1262q-50 0 -64 -14t-26 -70l-84 -445h196q129 0 163 24t71 126h59l-78 -387h-57q4 111 -21 135q-27 23 -153 22h-197l-67 -358q-31 -162 10 -197q38 -28 180 -28t198 14t108 66t126 186l58 -21l-127 -315h-959l12 55q121 8 156 37t59 154l162 839q25 123 3 151
t-148 40l12 53h891q-2 -14 -39 -313l-59 -4q-1 129 -23 175t-61 58q-33 16 -142 17h-159z" />
    <glyph glyph-name="uni0416" unicode="&#x416;" horiz-adv-x="1857" 
d="M143 0h-186l14 55q78 8 127 35q46 30 96 102t101 150t67 100t32 46q122 184 298 225l2 6q-109 49 -165 229t-83 223q-25 49 -90 54l-53 2q-70 2 -70 63q0 29 30 50t83 22q158 -4 209 -211q68 -254 117 -320q39 -45 90 -69q55 -20 145 -23l70 353q10 51 13 88t-15 58
q-17 22 -33 24q-50 8 -108 12l10 55h508l-15 -55q-113 -8 -143 -37t-53 -145l-74 -353q94 5 143 23t105 61q53 45 103 112t157 230q129 197 252 197q45 0 67 -22t21 -50q0 -28 -27 -46q-27 -19 -69 -19h-29q-18 0 -25 -2l-24 -6q-5 -1 -15 -9l-17 -13q-7 -5 -9 -7l-25 -25
q-16 -18 -24 -30q-15 -13 -29 -35t-30 -44t-47 -70q-32 -49 -44 -60q-104 -150 -239 -205l-2 -6q121 -31 194 -203q2 -4 115 -297q35 -90 77 -119t128 -39l-13 -55h-159q-86 0 -130 46q-48 50 -97 198q-49 147 -84 249q-36 103 -89 146q-55 39 -145 37l-76 -402
q-20 -116 -15 -150q8 -52 78 -58q29 -8 84 -11l-12 -55h-534l14 55q23 2 96 11q29 6 58 30q30 24 42 80q12 54 21 98l82 404q-111 2 -179 -33t-147 -158q-98 -168 -176 -299q-61 -94 -119 -141t-131 -47z" />
    <glyph glyph-name="uni0417" unicode="&#x417;" horiz-adv-x="1021" 
d="M602 1294q-196 0 -323 -293l-56 13q57 154 86 278q35 10 76 24q141 46 266 46t228 -72q100 -74 100 -221q4 -231 -328 -330v-4q115 -20 202 -99t87 -218q0 -207 -164 -328t-360 -121t-312 97q-88 70 -88 155q0 41 21 62q18 23 47 22q41 0 66 -61q80 -205 253 -205
q145 -4 244 108q96 113 96 251t-55 214q-51 76 -160 76l-147 -16h-16q-29 0 -50 16q-20 16 -16 39q0 27 25 45t57 19h18l140 -17q106 0 182 89t74 201q-1 112 -51 170q-50 60 -142 60z" />
    <glyph glyph-name="uni0418" unicode="&#x418;" horiz-adv-x="1499" 
d="M1591 1329l-14 -53q-113 -10 -143 -38t-58 -159l-159 -823q-27 -131 -7 -162t144 -39l-15 -55h-491l14 55q104 8 137 39q25 29 54 162l182 903h-4l-828 -1063q-23 -31 -32 -71l-4 -25h-342l10 55q109 8 145 39q31 31 56 158l163 835q25 123 3 152t-136 37l13 53h491
l-12 -53q-113 -10 -140 -39q-31 -25 -55 -147l-178 -891h4l819 1046q33 45 35 64l4 20h344z" />
    <glyph glyph-name="uni0419" unicode="&#x419;" horiz-adv-x="1499" 
d="M932 1425q-80 0 -131 41q-49 44 -49 88t30 88l21 29h45q-14 -137 116 -137t205 141l58 -18q-84 -231 -293 -232h-2zM1591 1329l-14 -53q-113 -10 -143 -38t-58 -159l-159 -823q-27 -131 -7 -162t144 -39l-15 -55h-491l14 55q104 8 137 39q25 29 54 162l182 903h-4
l-828 -1063q-23 -31 -32 -71l-4 -25h-342l10 55q109 8 145 39q31 31 56 158l163 835q25 123 3 152t-136 37l13 53h491l-12 -53q-113 -10 -140 -39q-31 -25 -55 -147l-178 -891h4l819 1046q33 45 35 64l4 20h344z" />
    <glyph glyph-name="uni041A" unicode="&#x41a;" horiz-adv-x="1290" 
d="M1036 0q-88 0 -136 51t-98 209q-8 30 -20 62t-31 86t-26 73q-39 111 -94 158q-59 39 -152 39l-78 -412q-16 -82 -16 -110q-6 -35 13 -60t48 -30q74 -8 97 -11l-11 -55h-518l13 55q115 8 147 39t59 172l166 838q23 109 -2 135q-20 27 -147 37l12 53h508l-12 -53
q-111 -8 -142 -36t-51 -136l-73 -367q156 6 256 84q55 45 107 115t166 248t232 178q49 0 71 -21t22 -49t-26 -47q-26 -18 -69 -18h-28l-35 -2q-24 -10 -62 -43q-38 -34 -75 -97q-9 -9 -59 -81t-60 -86q-96 -139 -232 -199l-2 -6q111 -27 189 -207q27 -51 117 -293
q34 -90 76 -119t126 -39l-10 -55h-160z" />
    <glyph glyph-name="uni041B" unicode="&#x41b;" horiz-adv-x="1312" 
d="M725 1260q-45 0 -57 -10t-23 -56q-162 -823 -422 -1122q-91 -102 -155 -102t-113 22l4 31q137 74 242 217q90 112 185 362t153 537q16 84 -13 104t-164 31l15 55h1026l-12 -55q-106 -8 -146 -37q-33 -33 -53 -152l-160 -825l-5 -30q-3 -17 -7 -33t-4 -68q8 -31 12 -35
q6 -14 29 -20q16 -8 49 -13l70 -6l-11 -55h-510l9 55q112 8 142 38t58 167l176 909q12 55 4 74q-12 16 -57 17h-262z" />
    <glyph glyph-name="uni041C" unicode="&#x41c;" horiz-adv-x="1794" 
d="M1864 1329l-15 -53q-133 -12 -161 -40t-48 -155q-102 -711 -112 -814q-10 -105 -6 -133t12 -39t24 -17t33 -11q15 -5 21 -5t30 -4q24 -3 39 -3l-12 -55h-518l12 55q123 12 153 45t60 262q8 61 41 264q33 202 53 334t29 179h-6l-678 -1131h-45q-76 424 -209 1110h-6
l-147 -540q-86 -320 -96 -392t16 -96q33 -27 139 -35l-12 -55h-461l12 55q90 10 129 36t64 89q59 160 147 469l115 389q25 82 31 121q17 82 -62 103q-16 2 -115 14l15 53h342q125 -594 223 -1026l637 1026h332z" />
    <glyph glyph-name="uni041D" unicode="&#x41d;" horiz-adv-x="1519" 
d="M1612 1329l-13 -53q-117 -12 -147 -41t-55 -156l-158 -831q-25 -121 -2 -153t145 -40l-12 -55h-520l14 55q119 8 152 39t55 154l78 414h-670l-78 -414q-23 -131 0 -154q18 -29 146 -39l-12 -55h-508l12 55q113 10 143 40t51 153l160 831q25 125 4 156q-27 29 -149 41
l14 53h506l-12 -53q-111 -12 -143 -44t-52 -153l-63 -334h667l66 334q23 129 1 157t-140 40l12 53h508z" />
    <glyph glyph-name="uni041E" unicode="&#x41e;" horiz-adv-x="1449" 
d="M864 1290q-152 0 -278 -116t-189 -287q-65 -166 -65 -369t92 -340t263 -137t297 120t186 291q60 172 60 366t-87 335q-93 137 -279 137zM881 1362q246 0 393 -164q152 -160 151 -424q0 -328 -213 -569q-213 -236 -532 -236q-244 0 -394 162t-151 420q1 327 217 569
t529 242z" />
    <glyph glyph-name="uni041F" unicode="&#x41f;" horiz-adv-x="1476" 
d="M1102 1260h-397q-78 0 -95 -23q-23 -16 -39 -109l-170 -872q-25 -133 -2 -163t148 -38l-12 -55h-515l13 55q115 8 145 37t58 164l157 819q25 133 4 162q-25 29 -147 37l14 55h1307l-12 -55q-27 -2 -60 -6t-47 -5t-43 -26q-27 -27 -33 -49t-24 -113l-158 -819
q-23 -133 -2 -162q27 -31 145 -39l-12 -55h-522l12 55q121 8 152 37t59 164l168 866q14 94 0 116t-92 22z" />
    <glyph glyph-name="uni0420" unicode="&#x420;" horiz-adv-x="1134" 
d="M620 618q124 0 240 82q125 90 125 310q0 112 -72 182q-68 74 -202 74q-49 0 -87 -16t-51 -97l-96 -508q71 -27 143 -27zM737 1329q430 0 430 -344q1 -137 -77 -241q-138 -186 -410 -205q-18 -2 -80 -2l-137 43l-62 -324q-25 -129 2 -159t166 -42l-12 -55h-543l13 55
q119 12 149 43q31 25 60 158l163 829q25 125 2 148q-16 27 -143 43l12 53h467z" />
    <glyph glyph-name="uni0421" unicode="&#x421;" horiz-adv-x="1300" 
d="M731 -31q-266 0 -431 157t-165 433q0 355 243 579t607 224q178 0 350 -68q0 -31 -16 -313l-62 -6q-10 176 -83 246q-76 70 -236 69q-262 0 -433 -217t-171 -508q0 -229 110 -378t310 -148q142 1 242 83t196 234l53 -28q-39 -90 -88 -184t-74 -126q-211 -49 -352 -49z" />
    <glyph glyph-name="uni0422" unicode="&#x422;" horiz-adv-x="1234" 
d="M598 1262q-127 0 -174 -12t-85 -56q-38 -43 -93 -178h-62q63 207 97 364h43q16 -35 36 -41q16 -10 64 -10h770q36 0 56 9t53 42h43q-20 -121 -48 -358l-61 -6q0 131 -25 182q-14 37 -59 50t-160 14h-123l-190 -1016q-23 -125 4 -154t164 -37l-12 -55h-557l12 55
q129 10 162 38t55 153l194 1016h-104z" />
    <glyph glyph-name="uni0423" unicode="&#x423;" horiz-adv-x="1239" 
d="M389 74q106 0 211 217q6 43 -17 132q-45 174 -127 419q-81 245 -88 269t-10 32q-20 75 -54 99t-124 32l13 55h456l-10 -55l-70 -12q-37 -6 -46 -26t7 -81l203 -670q244 428 346 629q41 88 33 115q-10 27 -65 35l-74 10l12 55h436l-10 -55q-102 -12 -137 -45
q-36 -27 -102 -135t-259 -435q-180 -313 -251 -432q-182 -287 -349 -286q-109 0 -133 75q-8 23 0 58q14 31 35 47q35 25 64 0q57 -47 110 -47z" />
    <glyph glyph-name="uni0424" unicode="&#x424;" horiz-adv-x="1499" 
d="M963 1096l-152 -836q223 2 349 124t126 341q5 336 -323 371zM328 643q0 -172 94 -266q98 -93 225 -113l156 836q-205 -2 -340 -117t-135 -340zM1470 702q0 -122 -57 -227q-61 -104 -160 -164q-207 -116 -454 -114q-16 -92 8 -113q20 -25 133 -33l-10 -51h-477l10 51
q104 12 127 35q27 18 45 115q-201 12 -348 118q-143 111 -144 318q-1 131 59 236q106 187 367 257q117 31 244 31q14 77 -7 97t-134 26l12 57h475l-10 -57q-104 -4 -131 -24t-39 -103q158 -11 324 -104q74 -49 122 -135q45 -94 45 -216z" />
    <glyph glyph-name="uni0425" unicode="&#x425;" horiz-adv-x="1314" 
d="M1393 1329l-13 -53q-112 -12 -152 -35t-118 -104q-98 -113 -332 -398l228 -503q51 -117 86 -144t155 -37l-12 -55h-516l12 55l64 8q57 11 67 29t-10 70q-84 203 -190 438q-254 -326 -330 -438q-35 -47 -25 -68q8 -25 72 -33l49 -6l-12 -55h-465l14 55q90 8 141 31
q45 25 121 102q111 121 400 482l-197 444q-45 98 -78 125q-37 25 -139 37l14 53h473l-12 -53l-53 -10q-51 -8 -61 -22t12 -76q23 -60 159 -359q158 190 283 367q35 47 25 65q-6 16 -58 25l-59 10l12 53h445z" />
    <glyph glyph-name="uni0426" unicode="&#x426;" horiz-adv-x="1492" 
d="M1231 70h141l-139 -426h-59l14 225q4 87 -10 109t-72 22h-1086l11 55q119 8 149 37q29 29 53 158l162 835q20 125 2 152q-23 27 -145 37l12 55h512l-12 -55q-121 -10 -148 -37q-31 -25 -55 -152l-164 -860q-20 -104 -4 -129q18 -23 121 -22h348q98 0 125 22t47 119
l166 866q23 133 2 156q-18 27 -139 37l10 55h506l-10 -55q-121 -10 -149 -36t-52 -157l-178 -927q-10 -60 -3 -72t44 -12z" />
    <glyph glyph-name="uni0427" unicode="&#x427;" horiz-adv-x="1302" 
d="M670 651q136 0 272 60l74 376q23 123 2 151t-135 36l12 55h487l-10 -55q-109 -8 -139 -37q-31 -35 -51 -150l-160 -833q-23 -135 -1 -163t140 -36l-10 -55h-518l6 55q123 8 157 38t58 161l74 385l-197 -66q-72 -25 -149 -24q-213 0 -283 125q-49 82 -16 239l39 199
q20 102 2 129q-25 25 -129 33l10 55h477l-10 -55q-106 -8 -134 -32t-49 -130l-36 -180q-56 -281 217 -281z" />
    <glyph glyph-name="uni0428" unicode="&#x428;" horiz-adv-x="1890" 
d="M682 72q86 0 109 22q25 29 45 144l161 849q23 123 5 151t-123 36l12 55h463l-13 -55q-106 -10 -130 -37t-48 -150l-162 -849q-23 -123 -9 -145t100 -21h194q84 0 107 22q23 27 47 144l162 849q23 123 2 151t-131 36l12 55h487l-10 -55q-118 -10 -146 -39t-49 -148
l-159 -837q-25 -127 0 -157t151 -38l-10 -55h-1720l10 55q109 8 141 37t56 158l159 837q23 123 1 151t-138 36l12 55h484l-13 -55q-102 -8 -129 -36t-51 -151l-164 -847q-20 -125 -7 -147t99 -21h193z" />
    <glyph glyph-name="uni0429" unicode="&#x429;" horiz-adv-x="1892" 
d="M1628 70h144l-140 -426h-61l18 225q6 78 -8 106q-18 25 -74 25h-1480l12 55q109 8 141 39q29 31 56 162l159 831q21 123 -1 151t-138 36l12 55h484l-13 -55q-94 -8 -129 -37q-29 -37 -49 -150l-162 -843q-23 -125 -9 -149t97 -23h195q84 0 109 28t45 142l161 845
q23 123 5 151t-123 36l10 55h465l-13 -55q-100 -8 -129 -37t-49 -150l-162 -843q-23 -125 -9 -149t100 -23h194q86 0 109 26t45 146l162 843q23 127 2 153t-131 34l12 55h485l-10 -55q-106 -8 -141 -37q-33 -33 -54 -150l-176 -927q-10 -58 -2 -74t41 -16z" />
    <glyph glyph-name="uni042A" unicode="&#x42a;" horiz-adv-x="1478" 
d="M897 725q-60 0 -115 -8l-90 -467q-20 -102 8 -144q31 -37 121 -36q180 -2 285 102q104 104 104 270q-2 283 -313 283zM782 0h-467l13 55q110 8 142 40t58 163l179 924q10 53 -1 66t-67 14h-109q-145 0 -201 -64t-100 -178l-55 10q55 184 82 299h823l-12 -55
q-129 -10 -162 -39q-31 -31 -55 -164l-53 -285q92 10 170 11q211 -1 323 -95t113 -251q2 -270 -258 -388q-139 -63 -363 -63z" />
    <glyph glyph-name="uni042B" unicode="&#x42b;" horiz-adv-x="1697" 
d="M596 725q-54 0 -109 -8l-88 -471q-23 -102 7 -140q25 -37 110 -36q172 -2 283 98q106 104 104 274q0 283 -307 283zM1800 1329l-14 -53q-119 -12 -152 -39q-33 -33 -53 -141l-164 -850q-25 -121 -1 -152t155 -39l-15 -55h-532l14 55q113 8 154 39q35 35 55 152l166 850
q20 111 -4 141q-27 27 -156 39l15 53h532zM477 0h-459l15 55q111 8 143 39q29 31 55 162l164 829q25 123 2 150q-20 31 -145 39l14 55h514l-12 -55q-121 -10 -152 -39t-55 -152l-59 -297q86 10 168 11q211 0 321 -92q106 -96 107 -259q0 -254 -244 -374q-147 -72 -377 -72z
" />
    <glyph glyph-name="uni042C" unicode="&#x42c;" horiz-adv-x="1183" 
d="M600 725q-35 0 -113 -10l-88 -469q-20 -98 8 -138t119 -38q174 0 281 102q111 100 106 270q0 283 -313 283zM487 0h-469l13 53q111 8 143 39t57 164l164 827q25 125 3 154t-146 37l14 55h506l-10 -55q-113 -8 -145 -37t-56 -156l-59 -295q86 10 170 11q215 0 323 -95
q113 -94 113 -256q-2 -254 -246 -374q-147 -72 -375 -72z" />
    <glyph glyph-name="uni042D" unicode="&#x42d;" horiz-adv-x="1257" 
d="M686 1362q252 0 397 -157t146 -435q-4 -344 -208 -572t-534 -229q-119 0 -225 45t-169 119q-62 74 -62 148q0 35 18 57t47 22q43 0 76 -79q104 -240 328 -240t357 168q132 168 167 444l-684 -14l27 111l665 -15q4 37 4 72q0 211 -90 348q-92 137 -278 137q-46 0 -96 -11
t-75 -23t-71 -46l-49 -49q-25 -25 -41 -57q-21 -25 -46 -81q-26 -56 -28 -58l-57 16q55 156 98 301q2 0 28 8t85 25q60 18 142 31q83 14 128 14z" />
    <glyph glyph-name="uni042E" unicode="&#x42e;" horiz-adv-x="1908" 
d="M897 500q0 -195 81 -327t227 -132t260 121t169 295q56 175 56 371t-76 330t-222 134t-262 -121q-115 -121 -174 -299t-59 -372zM1399 1362q209 0 346 -163t137 -419q0 -338 -199 -574t-487 -237q-215 0 -354 158t-140 422q0 49 7 104h-232l-80 -422q-23 -111 4 -137
q25 -29 154 -39l-14 -55h-531l13 55q123 10 155 37t51 139l170 873q20 109 -2 135q-25 25 -157 37l14 53h528l-14 -53q-123 -12 -152 -37t-51 -133l-71 -361h233q57 265 243 441t429 176z" />
    <glyph glyph-name="uni042F" unicode="&#x42f;" horiz-adv-x="1232" 
d="M868 664l99 516q10 47 -15 64t-98 18q-170 0 -266 -92t-95 -230q1 -137 79 -207t219 -69h77zM778 598q-80 0 -127 -33q-51 -31 -106 -107t-195 -286q-76 -110 -133 -140t-158 -34h-133l11 51q69 9 99 23t53 40t233 308q119 162 256 203v2q-109 29 -187 108
q-78 86 -76 209q1 184 139 286t365 101h496l-8 -55q-113 -8 -144 -37q-29 -33 -53 -156l-158 -827q-20 -131 -2 -160q27 -31 144 -39l-11 -55h-505l10 55q114 8 142 36t56 163l66 344h-74z" />
    <glyph glyph-name="uni0430" unicode="&#x430;" horiz-adv-x="1003" 
d="M305 106q57 0 191 144t190 258q14 55 68 295q-60 29 -144 29t-139 -44q-102 -74 -160 -231q-61 -154 -61 -315q0 -64 16 -100t39 -36zM80 228q0 134 68 288t164 233q206 169 395 171q55 0 121 -14t83 -13l7 -8q-72 -272 -142 -666q-18 -88 2 -88t62 33q45 31 88 74
l24 -50q-80 -98 -167 -155t-132 -58q-70 0 -37 181l41 194h-4q-113 -160 -246 -267t-208 -108q-45 -1 -82 59t-37 194z" />
    <glyph glyph-name="uni0431" unicode="&#x431;" horiz-adv-x="956" 
d="M593 823q-60 0 -135 -50t-130 -126q-58 -123 -58 -273t45 -230q45 -81 123 -81q45 0 80 21q72 39 143 183t70 333q0 106 -39 164t-99 59zM901 611q0 -145 -65 -277q-59 -133 -172 -234q-144 -125 -282 -125t-210 103q-68 104 -68 292t80 381q192 461 664 617
q152 51 188 90q12 12 21 8q8 0 8 -12q-10 -62 -49 -122t-105 -87q-37 -18 -198 -59q-156 -35 -228 -107q-108 -108 -157 -325l6 -2q80 76 174 122t166 46q109 0 166 -84q61 -80 61 -225z" />
    <glyph glyph-name="uni0432" unicode="&#x432;" horiz-adv-x="942" 
d="M674 290q0 169 -176 169q-84 0 -195 -49q-4 -14 -21 -116q-18 -102 16 -171q34 -68 134 -68t171 73t71 162zM588 842q-49 0 -101 -33q-115 -80 -170 -324q123 27 204 58t134 80q49 53 50 106q-4 57 -36 85t-81 28zM359 -25q-145 0 -209 89t-19 286q27 106 45 170
q76 246 285 348q99 52 197 52t151 -48q55 -44 56 -126t-107 -152q-51 -31 -127 -64q90 -8 154 -58t65 -144q0 -158 -195 -267q-152 -86 -296 -86z" />
    <glyph glyph-name="uni0433" unicode="&#x433;" horiz-adv-x="700" 
d="M504 920q86 0 135 -52q53 -48 53 -110t-12 -94t-49 -70q-46 -38 -148 -105l-98 -61q-82 -49 -127 -97q-45 -47 -45 -107t35 -99t100 -39q109 0 223 109l35 -48q-57 -67 -153 -119q-97 -52 -195 -52t-158 60q-60 62 -59 142q0 80 49 137q53 55 148 117l122 74
q168 100 168 205q0 47 -26 75t-72 27q-98 1 -207 -108l-30 51q147 164 311 164z" />
    <glyph glyph-name="uni0434" unicode="&#x434;" horiz-adv-x="937" 
d="M596 838q-66 0 -119 -29q-69 -33 -141 -159t-74 -328q0 -109 41 -184t107 -75t100 27q80 53 148 216t79 407q2 47 -26 75q-49 50 -115 50zM627 918q90 0 137 -37q10 59 -2 139q-20 119 -146 180q-45 23 -174 66q-82 29 -108 90q-27 57 -15 108q2 4 7 9q45 -27 157 -64
q178 -61 296 -245t119 -401q1 -218 -70 -386t-171 -262q-152 -139 -294 -139q-143 0 -207 94t-64 227q0 186 92 330q88 143 220 217t223 74z" />
    <glyph glyph-name="uni0435" unicode="&#x435;" horiz-adv-x="819" 
d="M645 723q-1 51 -29 82t-72 31t-92 -29t-106 -114t-80 -236q379 102 379 266zM90 272q0 160 66 299q61 141 180 234q152 115 282 115q78 0 132 -48q49 -49 49 -116q0 -227 -541 -363q-4 -33 -4 -65q0 -98 37 -165t123 -67q135 0 299 158l35 -47q-219 -231 -433 -232
q-89 0 -157 68q-68 69 -68 229z" />
    <glyph glyph-name="uni0436" unicode="&#x436;" horiz-adv-x="1435" 
d="M1391 920q31 0 49 -25t18 -65t-35 -89q-23 -27 -45 2q-47 53 -94 53t-102 -83q-111 -170 -112 -388t81 -219q37 0 94 37q61 45 96 82l25 -51q-74 -86 -158 -142t-150 -56t-95 67q-72 128 4 399h-154q-6 -35 -35 -177t-47 -234l-160 -56q92 410 101 467h-158
q-39 -138 -117 -244q-79 -106 -163 -164t-156 -59q-35 0 -54 27q-46 66 19 154q23 31 47 0q53 -60 102 -60t111 97q41 57 75 178t38 243q0 184 -76 185q-66 0 -197 -123l-24 51q184 193 301 193q68 0 102 -68t31 -150q-2 -82 -21 -186h156q35 164 74 371l153 33
q-33 -130 -86 -404h162q80 215 248 338q88 66 152 66z" />
    <glyph glyph-name="uni0437" unicode="&#x437;" horiz-adv-x="761" 
d="M690 733q0 -88 -82 -139q-23 -16 -119 -66v-6q70 -14 126 -67q57 -53 57 -151t-74 -177q-72 -82 -167 -117t-179 -35q-168 0 -234 103q-26 45 -12 78t49 61q23 16 37 -14q72 -147 221 -148q89 1 141 57t52 148t-52 138t-143 46q-43 0 -73 -8v53q162 39 227 97t65 107
q0 50 -34 84t-101 34q-106 0 -219 -137l-39 41l82 100q96 104 248 105q86 0 151 -52q72 -47 72 -135z" />
    <glyph glyph-name="uni0438" unicode="&#x438;" horiz-adv-x="1091" 
d="M352 115q78 0 214 144t210 280q31 125 74 327l141 54h23q-92 -362 -160 -713q-14 -80 4 -80q18 1 64 33t86 73l26 -49q-72 -90 -161 -149t-136 -60q-80 0 -30 218q20 92 38 180h-4q-168 -221 -329 -334q-88 -63 -166 -64q-131 0 -68 261q25 104 111 471q14 69 -6 69
t-144 -98l-22 49q88 88 174 140t127 53q53 0 41 -72q0 -24 -24 -128t-57 -254t-50 -216q-31 -135 24 -135z" />
    <glyph glyph-name="uni0439" unicode="&#x439;" horiz-adv-x="1091" 
d="M352 115q78 0 214 144t210 280q31 125 74 327l141 54h23q-92 -362 -160 -713q-14 -80 4 -80q18 1 64 33t86 73l26 -49q-72 -90 -161 -149t-136 -60q-80 0 -30 218q20 92 38 180h-4q-168 -221 -329 -334q-88 -63 -166 -64q-131 0 -68 261q25 104 111 471q14 69 -6 69
t-144 -98l-22 49q88 88 174 140t127 53q53 0 41 -72q0 -24 -24 -128t-57 -254t-50 -216q-31 -135 24 -135zM651 1038h-2q-86 0 -135 45t-49 93t35 94l20 30h43q-12 -74 22 -114t95 -39q129 0 207 158l55 -25q-88 -242 -291 -242z" />
    <glyph glyph-name="uni043A" unicode="&#x43a;" horiz-adv-x="995" 
d="M1006 842q0 -61 -52 -99q-23 -12 -32 0q-27 39 -66 39t-137 -110t-174 -170q29 -10 61 -40t56 -74q22 -44 65 -162t74 -117q49 0 129 94l33 -45q-45 -70 -123 -125q-72 -57 -125 -58q-68 -1 -107 115t-76 232q-33 121 -163 118q-8 -39 -32 -136t-34 -159
q-14 -59 -27 -122q-10 -3 -36 -11t-56 -17q-29 -9 -59 -20l-12 15q51 188 110 450t60 281q6 19 3 33t-12 14q-37 0 -133 -82l-26 47q72 72 161 129t132 58q67 0 22 -211l-49 -213q90 6 172 94q37 36 86 94t80 94l31 35q94 106 174 107q31 0 57 -23q25 -25 25 -55z" />
    <glyph glyph-name="uni043B" unicode="&#x43b;" horiz-adv-x="958" 
d="M729 125q15 0 59 27t91 73l22 -51q-70 -82 -161 -140t-138 -59q-80 0 -39 197q66 305 150 637q-78 -12 -230 -33q-143 -535 -327 -743q-55 -61 -101 -62q-23 -3 -51 13t-39 39l4 20q119 70 221 225q143 211 207 504q-141 -14 -213 -18l17 37q12 29 24 49q8 18 21 18
q250 0 420 20t247 44l11 -50l-25 -12q-31 -16 -44 -41t-57 -219t-77 -379q-16 -96 8 -96z" />
    <glyph glyph-name="uni043C" unicode="&#x43c;" horiz-adv-x="1294" 
d="M339 795q-21 0 -69 -33q-51 -29 -94 -72l-22 51q80 80 160 129q80 50 124 50t62 -29t45 -147t94 -472q256 418 358 557q27 27 105 56t155 43l15 -47q-63 -29 -84 -58q-25 -25 -37 -92q-53 -252 -88 -516q-10 -90 14 -90q11 1 63 29t85 61l28 -49q-68 -70 -161 -133
q-96 -57 -140 -58q-82 0 -45 205q63 336 117 568h-6q-180 -274 -447 -742l-47 -12q-90 625 -110 749h-4q-32 -174 -52 -260t-75 -239q-109 -269 -228 -271q-31 0 -51 23q-23 20 -27 51q2 23 25 33q125 35 213 221q66 141 127 416q18 78 -3 78z" />
    <glyph glyph-name="uni043D" unicode="&#x43d;" horiz-adv-x="1083" 
d="M276 770q-14 0 -58 -27t-75 -55l-26 47q72 72 160 128t133 57q68 0 20 -207l-43 -197h377q47 213 76 348l143 56h27q-57 -147 -164 -715q-14 -82 6 -82q34 0 143 90l23 -49q-72 -78 -164 -133t-133 -56q-69 0 -35 171t46 225q12 53 16 67h-379q-10 -48 -46 -200t-49 -215
q-115 -35 -147 -48l-12 15q53 197 164 704q18 76 -3 76z" />
    <glyph glyph-name="uni043E" unicode="&#x43e;" horiz-adv-x="962" 
d="M438 57q132 0 221 201q68 147 68 338q0 123 -47 182q-43 63 -119 64q-37 0 -78 -19q-74 -33 -147 -168q-70 -143 -70 -350q0 -111 45 -182q49 -66 127 -66zM378 -25q-150 0 -218 91q-66 94 -66 229q0 190 88 340q90 149 220 217t225 68q129 0 201 -84t71 -230
q0 -146 -57 -280q-57 -135 -162 -222q-152 -129 -302 -129z" />
    <glyph glyph-name="uni043F" unicode="&#x43f;" horiz-adv-x="1089" 
d="M281 768q-39 0 -134 -92l-26 49q82 90 164 142t125 53q72 0 16 -228l-43 -178h4q170 238 377 360q76 45 137 46q117 0 45 -293q-28 -119 -64 -270t-36 -156q-14 -74 4 -74q33 0 135 96l29 -49q-88 -94 -168 -146t-121 -53q-82 0 -33 213q6 27 19 77q12 50 23 97t38 158
l31 123q37 147 -17 148q-66 1 -206 -143t-224 -286q-55 -227 -80 -346q-88 -18 -147 -41l-12 17q117 467 166 694q20 82 -2 82z" />
    <glyph glyph-name="uni0440" unicode="&#x440;" horiz-adv-x="995" 
d="M422 66q113 0 229 174q115 176 115 364q0 127 -57 177t-141 50t-134 -14l-139 -682q14 -23 55 -49q41 -20 72 -20zM643 920q155 0 225 -71t70 -212q0 -225 -174 -424q-164 -182 -381 -238q-74 0 -121 21l-57 -289q-18 -86 -4 -113q18 -25 92 -32l49 -4l-6 -54l-473 -24
l8 53q94 18 129 45q31 31 51 123q57 263 105 493t71 334t36 166t18 78q-61 -18 -166 -74l-15 52q74 53 197 102l22 92q57 68 150 119l20 -10l-36 -158q86 25 190 25z" />
    <glyph glyph-name="uni0441" unicode="&#x441;" horiz-adv-x="782" 
d="M514 823q-96 0 -166 -135q-90 -164 -90 -371q0 -106 39 -163q39 -58 107 -58t149 48q82 48 135 104l31 -45q-92 -109 -205 -168t-209 -59t-155 77q-60 78 -60 217q0 140 57 274t154 224q76 66 162 104q171 88 274 17q45 -33 47 -72q0 -59 -67 -94q-25 -14 -45 12
q-62 88 -158 88z" />
    <glyph glyph-name="uni0442" unicode="&#x442;" horiz-adv-x="1611" 
d="M774 793q-68 0 -214 -160t-200 -268q-35 -125 -84 -353q-72 -8 -147 -37l-14 15q98 373 170 696q18 86 -2 88q-35 0 -142 -100l-24 49q86 92 166 144t123 53q78 0 16 -252l-35 -146h4q176 248 367 357q72 41 127 41q121 0 49 -312l-19 -84h5q174 246 374 357
q70 39 125 39q113 0 43 -297l-100 -428q-16 -66 2 -66q18 -1 63 29t78 63l27 -49q-76 -84 -161 -140t-128 -57q-82 0 -33 211l113 473q31 133 -20 134q-70 0 -214 -157t-204 -271q-35 -135 -80 -353q-76 -8 -150 -37l-12 15q115 466 141 590t27 170q-6 43 -37 43z" />
    <glyph glyph-name="uni0443" unicode="&#x443;" horiz-adv-x="903" 
d="M827 926q73 0 82 -113q0 -68 -71 -215q-115 -219 -373 -604q-139 -203 -242 -330q-158 -190 -239 -190q-33 0 -60 34q-26 29 -26 76t36 47q138 7 246 113t185 233q0 131 -29 332q-37 333 -76 434q-10 29 -27 29q-29 0 -108 -104l-39 41q63 96 121 151q63 66 115 66
q70 0 106 -226q44 -300 64 -540h4q256 401 262 569q2 39 -21 96q-10 35 21 68t69 33z" />
    <glyph glyph-name="uni0444" unicode="&#x444;" horiz-adv-x="1357" 
d="M1023 825q-50 0 -116 -59q-68 -55 -108 -115q-6 -26 -25 -142q-18 -117 -25 -157t-24 -143q16 -59 59 -103q47 -43 80 -43t64 13q76 30 144 188t65 304q-2 146 -33 201q-31 56 -81 56zM526 840q-102 0 -207 -209q-63 -139 -63 -328q0 -105 31 -169t85 -64t113 52t99 107
q18 132 41 246q31 195 34 217q-16 70 -55 109t-78 39zM1120 1458q55 0 83 -26t26 -48q0 -49 -45 -86q-31 -20 -54 2q-51 46 -104 46t-96 -95q-43 -88 -90 -344q-4 -31 -14 -75t-11 -66q176 154 287 154q86 0 142 -80t56 -224t-59 -276q-53 -139 -164 -236
q-143 -129 -254 -129q-74 0 -131 93q-35 -176 -78 -281q-45 -96 -127 -184q-123 -129 -235 -129q-43 0 -84 22q-37 25 -37 65t53 83q23 20 45 4q57 -47 109 -47t94 41q78 98 141 481q-147 -147 -278 -148q-96 0 -152 86q-53 86 -51 213q0 186 90 348t221 236q98 62 169 62
t114 -82q63 311 172 450q61 78 133 121q74 49 129 49z" />
    <glyph glyph-name="uni0445" unicode="&#x445;" horiz-adv-x="968" 
d="M385 920q39 0 63 -48t68 -176l37 -112q133 192 208 264t128 72t76 -28t21 -64t-28 -58q-27 -29 -46 -29t-35 17q-18 25 -48 24q-43 0 -122 -102q-72 -80 -134 -168l66 -205q59 -188 105 -188t147 119l35 -41q-143 -221 -260 -222q-76 0 -136 189l-63 198
q-141 -223 -222 -305t-153 -82q-38 0 -66 28t-27 69t28 67q27 31 50 31t37 -20t48 -21q78 0 282 309l-69 213q-37 129 -68 129q-39 1 -131 -116l-35 43q147 213 244 213z" />
    <glyph glyph-name="uni0446" unicode="&#x446;" horiz-adv-x="1097" 
d="M883 -127q0 84 84 242q-145 -139 -231 -139t-34 223q27 111 41 196h-4q-152 -227 -329 -354q-96 -66 -170 -66q-125 0 -72 240q35 164 113 483q18 76 -5 76q-39 0 -139 -88l-26 45q84 84 171 136t128 53q70 0 28 -170q-55 -221 -114 -496q-31 -139 26 -139q74 1 212 153
t198 275q47 127 80 323l143 54h23q-117 -479 -158 -721q-12 -74 12 -74q16 0 74 39t98 78l27 -47q-63 -88 -64 -183l15 -172q0 -51 -41 -102q-41 -43 -174 -96l-25 55q53 29 64 35q10 6 30 28t21 52v28q-2 14 -2 33z" />
    <glyph glyph-name="uni0447" unicode="&#x447;" horiz-adv-x="1024" 
d="M406 422q74 0 188 99t143 171q16 33 43 172l146 56h20q-30 -133 -66 -286q-36 -154 -52 -220t-31 -124q-14 -58 -19 -77q-25 -90 0 -92q14 -1 62 27t88 67l26 -49q-76 -82 -168 -136t-139 -55q-80 0 -35 181l97 387h-7q-98 -102 -210 -170q-115 -57 -181 -58
q-160 0 -110 199l47 191q16 61 -6 65q-31 0 -136 -92l-26 49q72 78 159 135t142 58q66 0 31 -140l-52 -211q-37 -147 46 -147z" />
    <glyph glyph-name="uni0448" unicode="&#x448;" horiz-adv-x="1605" 
d="M842 154q0 -43 28 -43q63 0 211 165q147 172 211 289q31 84 72 299l139 56h25q-96 -381 -162 -721q-16 -78 4 -78q12 -1 62 33t86 73l28 -49q-68 -82 -154 -142t-143 -61q-78 0 -32 205l49 219h-6q-186 -256 -336 -358q-94 -66 -162 -66q-111 0 -60 246l35 166h-8
q-168 -238 -334 -350q-96 -61 -162 -62q-119 0 -59 250q18 82 43 190t38 166t21 91l7 37q4 10 4 28q4 10 0 17q0 12 -8 12q-17 0 -61 -28t-85 -68l-24 49q86 92 171 146t132 55q72 0 32 -156q-80 -348 -104 -457t-24 -153q1 -44 32 -43q70 0 220 172t196 276q37 100 76 305
l139 56h25q-162 -654 -162 -766z" />
    <glyph glyph-name="uni0449" unicode="&#x449;" horiz-adv-x="1613" 
d="M1372 127q41 0 178 117l23 -49q-63 -82 -64 -181q-1 -47 9 -93t10 -80q0 -35 -12 -61t-64 -64t-143 -74l-23 57q53 29 69 38t34 34t18 44t-2 29v33q0 78 78 240q-152 -141 -234 -142q-80 0 -35 205l50 219h-7q-172 -244 -333 -358q-94 -66 -166 -66q-111 0 -60 246
l37 166h-10q-176 -246 -332 -350q-94 -61 -162 -62q-25 -1 -45 15t-32 71t9 140t111 471q20 88 2 94q-12 0 -63 -29q-49 -37 -82 -67l-25 49q88 94 173 145q82 55 131 56q72 0 32 -156q-8 -45 -69 -299t-59 -304q1 -50 30 -50q68 0 219 168q147 170 201 280q33 86 74 305
l139 56h24q-166 -667 -163 -766q0 -43 28 -43q66 0 211 163q145 168 215 291q31 88 70 299l139 56h25q-92 -356 -164 -723q-14 -70 10 -70z" />
    <glyph glyph-name="uni044A" unicode="&#x44a;" horiz-adv-x="1032" 
d="M696 532q-98 0 -211 -106q-61 -61 -76 -151t19 -152q35 -59 100 -59t117 38q66 45 105 131q35 88 34 175q0 124 -88 124zM557 879q33 0 98 53l39 -37q-80 -90 -134 -179t-109 -239h4q201 170 344 170q74 0 110 -53q41 -49 41 -142t-57 -202q-67 -104 -185 -189t-268 -86
q-92 0 -149 58q-51 63 -51 155q-4 131 88 299q84 170 207 308q-89 -14 -154 -4l-84 2q-57 0 -95 -39t-77 -117l-51 25q59 152 116 194q60 66 118 62t137 -22t112 -17z" />
    <glyph glyph-name="uni044B" unicode="&#x44b;" horiz-adv-x="1337" 
d="M612 549q-76 0 -184 -98q-49 -47 -76 -93q-20 -46 -34 -126t17 -128q32 -48 92 -49q134 0 222 172q45 90 45 206t-82 116zM1094 123q43 0 155 102l25 -51q-72 -82 -163 -140t-140 -59q-80 0 -39 177q63 287 160 712l139 56h22q-104 -449 -159 -709q-20 -88 0 -88z
M709 659q74 0 110 -53q41 -49 41 -139q0 -229 -223 -391q-137 -100 -297 -101q-133 0 -170 105q-25 63 6 178l111 432q20 76 -2 76q-37 0 -140 -82l-24 51q74 74 164 129t133 56q74 0 14 -207l-61 -232h4q186 178 334 178z" />
    <glyph glyph-name="uni044C" unicode="&#x44c;" horiz-adv-x="921" 
d="M678 433q0 116 -81 116t-189 -98q-53 -51 -72 -93q-20 -36 -36 -120t17 -134q35 -49 95 -49q134 0 223 170q43 92 43 208zM692 659q72 0 111 -53q39 -47 39 -139q0 -229 -224 -389q-139 -102 -299 -103q-131 0 -167 107q-25 59 4 176l110 430q23 78 -2 78q-37 0 -139 -82
l-25 51q74 72 164 128t135 57q37 0 40 -50t-25 -157l-64 -236h4q195 182 338 182z" />
    <glyph glyph-name="uni044D" unicode="&#x44d;" horiz-adv-x="833" 
d="M246 -25q-100 -1 -169 53t-69 104t58 93q25 14 38 -16q70 -143 213 -143q115 0 188 98t91 266l-397 -14l24 100l375 -14l4 35v6q-8 266 -194 266q-104 0 -238 -129l-35 51l115 98q102 91 228 91t207 -98t79 -267q0 -299 -225 -469q-145 -111 -293 -111z" />
    <glyph glyph-name="uni044E" unicode="&#x44e;" horiz-adv-x="1382" 
d="M987 842q-114 0 -209 -195q-70 -139 -69 -344q0 -246 155 -246q29 -2 66 15q88 34 152 186t65 342q-2 242 -160 242zM272 770q-37 0 -133 -82l-24 47q72 68 162 126t129 59q68 0 22 -205q-28 -111 -43 -199h186q37 113 108 202t161 136q116 66 228 66t180 -82t69 -228
q0 -146 -56 -284q-56 -137 -161 -224q-150 -127 -295 -127q-145 1 -207 93t-61 219q0 70 16 151h-186q-39 -176 -60 -272t-31 -135l-145 -56l-18 9q57 217 159 684q23 102 0 102z" />
    <glyph glyph-name="uni044F" unicode="&#x44f;" horiz-adv-x="980" 
d="M604 844q-109 0 -178 -53q-66 -55 -66 -143t60 -129q60 -42 149 -42h66l57 295q8 39 -8 55t-78 17h-2zM731 125q45 0 152 88l24 -47q-74 -80 -162 -135t-141 -56q-72 0 -35 179l54 256h-45q-100 0 -154 -73t-145 -218q-76 -131 -269 -131h-67l8 53q76 10 115 43t99 131
t112 146t124 69q-203 45 -202 215q0 97 62 157q108 106 333 103h414l-15 -51q-100 -14 -126 -38t-48 -134l-90 -465q-16 -92 2 -92z" />
    <glyph glyph-name="uni0451" unicode="&#x451;" horiz-adv-x="819" 
d="M785 1292q83 0 83 -90q0 -43 -28 -76q-28 -32 -69 -32t-63 24t-22 61t28 75t71 38zM424 1292q43 0 63 -24q21 -24 21 -66q0 -43 -28 -76q-28 -32 -70 -32t-63 24t-21 61t28 75t70 38zM645 723q-1 51 -29 82t-72 31t-92 -29t-106 -114t-80 -236q379 102 379 266zM90 272
q0 160 66 299q61 141 180 234q152 115 282 115q78 0 132 -48q49 -49 49 -116q0 -227 -541 -363q-4 -33 -4 -65q0 -98 37 -165t123 -67q135 0 299 158l35 -47q-219 -231 -433 -232q-89 0 -157 68q-68 69 -68 229z" />
    <glyph glyph-name="uni0452" unicode="&#x452;" horiz-adv-x="978" 
d="M512 1458q26 0 8 -76t-53 -231h317l-26 -76h-305q-64 -305 -111 -506l4 -2q143 211 326 316q57 37 114 37t95 -80q41 -74 41 -195q2 -219 -75 -423t-190 -357q-160 -213 -421 -342l-29 53q166 90 293 268q131 178 192 379q68 201 66 383t-74 180q-63 0 -182 -126
t-185 -273q-43 -143 -86 -371q-82 -12 -147 -39l-10 15q41 172 235 1083h-166l27 76h156q29 141 27 166q-1 25 -9 26q-6 6 -25 7l-47 8l11 51q145 27 180 38t49 11z" />
    <glyph glyph-name="uni0453" unicode="&#x453;" horiz-adv-x="700" 
d="M795 1354l-318 -348l-47 32q111 172 188 318q16 6 79 15t91 5zM504 920q86 0 135 -52q53 -48 53 -110t-12 -94t-49 -70q-46 -38 -148 -105l-98 -61q-82 -49 -127 -97q-45 -47 -45 -107t35 -99t100 -39q109 0 223 109l35 -48q-57 -67 -153 -119q-97 -52 -195 -52t-158 60
q-60 62 -59 142q0 80 49 137q53 55 148 117l122 74q168 100 168 205q0 47 -26 75t-72 27q-98 1 -207 -108l-30 51q147 164 311 164z" />
    <glyph glyph-name="uni0454" unicode="&#x454;" horiz-adv-x="806" 
d="M367 -25q-133 0 -205 88q-72 89 -72 239t57 271q98 215 316 308q90 39 173 39t132 -32t49 -74t-42 -75t-66 0q-63 95 -161 95t-173 -92q-74 -92 -105 -232l389 12l-22 -100l-377 14q-4 -53 -4 -82q0 -125 47 -194q43 -72 129 -72q131 0 281 131l30 -47
q-174 -197 -376 -197z" />
    <glyph glyph-name="uni0455" unicode="&#x455;" horiz-adv-x="690" 
d="M231 -25q-71 -1 -139 47t-68 99t60 88q35 16 51 -6q82 -125 197 -125q57 0 96 35t39 88q1 78 -105 161t-149 137t-43 124q0 106 106 198q49 43 115 71q67 28 123 28t102 -37t48 -84q0 -47 -52 -78q-27 -14 -45 8q-74 92 -159 92q-43 0 -78 -30q-33 -33 -33 -85t33 -88
q32 -43 108 -99q164 -121 164 -236t-123 -209q-119 -99 -248 -99z" />
    <glyph glyph-name="uni0456" unicode="&#x456;" horiz-adv-x="559" 
d="M184 -25q-76 0 -26 201l127 524q18 66 -2 66q-39 0 -140 -88l-24 47q84 80 175 137t136 58q57 0 21 -162l-142 -565q-16 -66 4 -66q38 0 144 96l26 -43q-51 -66 -151 -135q-94 -70 -148 -70zM455 1313q70 0 82 -92q0 -51 -32 -85t-74 -34q-41 0 -63 24t-24 65
q-2 42 29 83q33 39 82 39z" />
    <glyph glyph-name="uni0457" unicode="&#x457;" horiz-adv-x="561" 
d="M617 1292q85 0 85 -86q0 -45 -28 -79q-28 -33 -68 -33q-42 0 -64 24t-22 63q0 40 29 74q25 37 68 37zM258 1292q84 0 84 -89q0 -42 -28 -76q-28 -33 -68 -33t-64 24q-22 24 -22 61q0 38 28 76q29 37 70 37zM186 -25q-76 0 -26 201l127 524q18 66 -2 66q-39 0 -140 -88
l-24 47q82 78 173 136t136 59q59 0 21 -162l-140 -565q-16 -66 4 -66q31 0 144 96l26 -43q-63 -74 -153 -135q-90 -70 -146 -70z" />
    <glyph glyph-name="uni0458" unicode="&#x458;" horiz-adv-x="544" 
d="M301 725v20q0 9 -4 13h-4q-2 2 -10 2t-56 -31q-61 -45 -88 -72l-26 48q90 96 184 155t139 60q58 0 22 -188t-117 -582q-81 -392 -245 -547q-133 -129 -219 -129q-33 0 -61 20t-27 45q0 51 49 90q23 20 45 9q57 -33 101 -33t77 51q35 49 62 166t97 474t73 374l6 41
q2 6 2 14zM435 1327q89 -1 89 -101q0 -42 -30 -76t-72 -34q-41 0 -66 26q-26 26 -26 66t30 82q31 37 75 37z" />
    <glyph glyph-name="uni0459" unicode="&#x459;" horiz-adv-x="1337" 
d="M1090 416q0 125 -80 125t-197 -119q-43 -41 -62 -78t-32 -92q-14 -94 14 -146q33 -51 99 -51t122 45q56 39 96 130t40 186zM180 758q0 2 6 13t16 34t19 35q8 18 21 18q248 0 458 27q141 14 207 37l11 -52l-29 -12q-40 -16 -71 -142q-30 -126 -56 -261q203 197 350 196
q66 0 105 -53q39 -47 38 -135q0 -221 -219 -385q-138 -102 -284 -102t-183 108q-23 61 4 178q25 133 134 551q-84 -14 -228 -31q-139 -541 -323 -749q-109 -121 -193 -10l4 18q117 70 223 227q59 88 125 248q57 154 78 260q-27 -4 -69 -6q-92 -12 -144 -12z" />
    <glyph glyph-name="uni045A" unicode="&#x45a;" horiz-adv-x="1429" 
d="M1182 416q0 129 -77 129t-179 -92q-57 -51 -81 -99t-38 -126q-14 -76 20 -124q35 -47 97 -47t123 43q51 39 93 130t42 186zM1202 649q70 0 109 -49t39 -131q-4 -233 -222 -389q-141 -104 -294 -105q-62 0 -110 28t-69 80t9 173q6 18 38 184h-335q-23 -88 -95 -424
q-90 -18 -151 -41l-10 15q72 266 163 700q14 82 -2 82q-33 0 -141 -90l-25 47q80 80 165 135t130 56q70 0 23 -213l-41 -191h336q19 78 80 350l147 54h25q-37 -96 -119 -455q201 184 350 184z" />
    <glyph glyph-name="uni045B" unicode="&#x45b;" horiz-adv-x="1044" 
d="M856 922q111 0 59 -228q-29 -125 -57 -246t-51 -220q-22 -99 -2 -101q45 0 145 94l25 -49q-78 -86 -166 -141t-133 -56q-78 0 -31 201q12 51 111 477q20 82 14 109q0 33 -29 33q-66 0 -209 -144q-147 -141 -225 -274q-45 -184 -78 -363q-80 -14 -145 -39l-14 17
q123 537 235 1085h-162l25 74h156q30 145 24 168q0 20 -8 24q-12 4 -25 5l-55 8l10 49q97 17 128 26q30 9 43 12t24 7l45 8q27 0 10 -65q-45 -201 -53 -242h299l-27 -74h-290q-29 -139 -57 -267t-43 -199t-19 -87h6q186 246 389 355q80 43 131 43z" />
    <glyph glyph-name="uni045C" unicode="&#x45c;" horiz-adv-x="995" 
d="M907 1354l-317 -348l-47 32q111 172 188 318q15 6 79 15t91 5zM1006 842q0 -61 -52 -99q-23 -12 -32 0q-27 39 -66 39t-137 -110t-174 -170q29 -10 61 -40t56 -74q22 -44 65 -162t74 -117q49 0 129 94l33 -45q-45 -70 -123 -125q-72 -57 -125 -58q-68 -1 -107 115
t-76 232q-33 121 -163 118q-8 -39 -32 -136t-34 -159q-14 -59 -27 -122q-10 -3 -36 -11t-56 -17q-29 -9 -59 -20l-12 15q51 188 110 450t60 281q6 19 3 33t-12 14q-37 0 -133 -82l-26 47q72 72 161 129t132 58q67 0 22 -211l-49 -213q90 6 172 94q37 36 86 94t80 94l31 35
q94 106 174 107q31 0 57 -23q25 -25 25 -55z" />
    <glyph glyph-name="uni045E" unicode="&#x45e;" horiz-adv-x="903" 
d="M563 1051q-84 0 -134 44t-50 103q0 31 35 84l22 29h41q-10 -76 23 -111q33 -41 96 -41q125 0 207 156l53 -23q-82 -242 -291 -241h-2zM827 926q73 0 82 -113q0 -68 -71 -215q-115 -219 -373 -604q-139 -203 -242 -330q-158 -190 -239 -190q-33 0 -60 34q-26 29 -26 76
t36 47q138 7 246 113t185 233q0 131 -29 332q-37 333 -76 434q-10 29 -27 29q-29 0 -108 -104l-39 41q63 96 121 151q63 66 115 66q70 0 106 -226q44 -300 64 -540h4q256 401 262 569q2 39 -21 96q-10 35 21 68t69 33z" />
    <glyph glyph-name="uni045F" unicode="&#x45f;" horiz-adv-x="1083" 
d="M590 -210q0 -24 -12 -52q-8 -25 -62 -62q-43 -35 -139 -71l-21 55q109 53 109 115l-4 65q0 105 86 203l51 10q-25 -47 -27 -79q-1 -32 9 -96t10 -88zM346 115q80 0 213 151q135 147 207 285q55 236 72 315l141 54h22q-100 -403 -159 -713q-14 -80 4 -80q18 1 63 33t86 73
l27 -49q-72 -86 -160 -147t-135 -62q-82 0 -33 218q20 84 41 194h-4q-166 -233 -325 -346q-94 -66 -168 -66q-127 0 -68 256q25 102 50 214l39 168q13 56 20 81q23 78 -3 82q-31 0 -143 -98l-22 51q92 88 174 139q82 52 125 52t40 -62q-4 -62 -12 -95q-8 -34 -15 -66
t-42 -180t-61 -275q-27 -127 26 -127z" />
    <glyph glyph-name="uni0462" unicode="&#x462;" horiz-adv-x="1404" 
d="M817 670q-72 0 -104 -8l-78 -394q-23 -117 2 -153q23 -41 123 -41q172 4 264 90q98 86 98 239q0 267 -305 267zM877 737q440 0 440 -319q0 -121 -58 -205q-103 -148 -358 -193q-102 -20 -227 -20h-428l8 53q123 8 158 43t61 180l152 779h-127q-109 1 -151 -13t-76 -58
t-72 -132h-58q59 201 86 322h41q8 -31 28 -40t66 -10h275q23 98 0 122t-127 30l12 53h469l-8 -53q-111 -6 -137 -31q-31 -23 -45 -121h338q61 0 102 50h41q-27 -148 -39 -316l-57 -4q-6 98 -24 140t-66 51q-47 9 -154 10h-158l-59 -324q80 6 152 6z" />
    <glyph glyph-name="uni0463" unicode="&#x463;" horiz-adv-x="1456" 
d="M1136 555q-79 0 -192 -113q-84 -84 -108 -206q-14 -82 16 -134q33 -49 94 -49t121 41q57 43 100 135q47 88 47 191q1 135 -78 135zM897 920q111 0 51 -226q-12 -47 -53 -217h4q92 92 176 133q86 47 155 47t109 -51q39 -54 39 -154t-60 -203t-163 -175q-139 -98 -285 -98
t-180 104q-20 57 6 182q8 20 44 174t52 218t19 91q0 29 -7 38t-22 8q-38 -1 -106 -53t-152 -154q-119 -137 -170 -240q-43 -150 -80 -328q-82 -16 -147 -41l-12 17q102 401 159 678q20 98 0 98q-41 0 -131 -90l-26 49q81 88 159 140t123 53q76 0 19 -246l-41 -168h4
q197 270 381 371q80 43 135 43z" />
    <glyph glyph-name="uni0472" unicode="&#x472;" horiz-adv-x="1454" 
d="M330 532q0 -223 96 -356q92 -135 288 -135t336 183t173 421h-885q-8 -49 -8 -113zM1233 793q0 223 -87 359t-279 136t-330 -160t-185 -391h879q2 14 2 56zM881 1362q245 0 395 -163t149 -427q0 -332 -214 -568t-529 -235q-242 0 -395 160q-150 162 -150 420
q0 328 215 571q216 242 529 242z" />
    <glyph glyph-name="uni0473" unicode="&#x473;" horiz-adv-x="950" 
d="M260 307q0 -117 47 -182q43 -68 127 -68q108 0 189 136q57 90 82 225h-437q-8 -57 -8 -111zM721 596q0 121 -43 182t-117 62q-41 0 -88 -22t-108 -101q-57 -86 -84 -217h436q4 45 4 96zM623 920q131 0 196 -84q70 -78 70 -228q-1 -150 -59 -284q-58 -135 -160 -220
q-158 -129 -302 -129t-212 91q-63 94 -64 229q0 190 88 340q90 149 220 217t223 68z" />
    <glyph glyph-name="uni0474" unicode="&#x474;" horiz-adv-x="1294" 
d="M612 -29h-47q-92 524 -209 1114q-20 115 -49 147t-131 44l10 53h480l-13 -53l-82 -16q-43 -10 -55 -25q-10 -16 -3 -69t36 -201q35 -207 65 -357q12 -76 35 -194t29 -160h4q223 440 436 833q82 150 144 212q62 63 116 63t78 -22t21 -54q-4 -56 -78 -65l-27 -2
q-39 -2 -81 -41q-43 -40 -145 -214t-534 -993z" />
    <glyph glyph-name="uni0475" unicode="&#x475;" horiz-adv-x="960" 
d="M1032 844q0 -28 -24 -53q-27 -23 -56 -23h-16q-63 0 -156 -147q-72 -111 -223 -371q-137 -244 -158 -275h-55q-33 439 -50 617t-47 178t-126 -102l-35 47q57 80 135 141q141 124 180 12q40 -106 62 -647h4q72 135 248 445q76 135 133 194q53 60 95 60t69 -23
q20 -25 20 -53z" />
    <glyph glyph-name="uni0490" unicode="&#x490;" horiz-adv-x="937" 
d="M682 1260q-55 0 -72 -11q-16 -12 -24 -67l-185 -926q-27 -131 -4 -162t158 -39l-8 -55h-524l10 55q115 10 143 39t57 162l164 817q25 135 5 164t-136 37l13 55h536q139 1 185 53t110 179l57 -11l-82 -290h-403z" />
    <glyph glyph-name="uni0491" unicode="&#x491;" horiz-adv-x="780" 
d="M678 920l72 -5q20 0 41 19q22 27 47 78l51 -19q-35 -127 -72 -165t-82 -38t-143 27q-54 21 -74 -69q-11 -47 -65 -414q-25 -170 -121 -262q-92 -96 -200 -96t-155 83q-29 53 31 109q33 33 58 -8q57 -106 122 -107q55 0 78 115l58 352q36 221 150 310t204 90z" />
    <glyph glyph-name="uni04C0" unicode="&#x4c0;" horiz-adv-x="686" 
d="M778 1329l-12 -53q-121 -12 -150 -39t-49 -137l-166 -862q-20 -119 0 -146t150 -37l-12 -55h-525l15 55q117 8 151 37q31 29 53 146l166 862q20 109 -2 137q-25 27 -153 39l14 53h520z" />
    <glyph glyph-name="uni04D9" unicode="&#x4d9;" horiz-adv-x="806" 
d="M303 63q77 0 152 80q29 29 69 115q39 86 54 191q-379 -100 -379 -279q-2 -47 26 -80q31 -27 78 -27zM754 626q0 -160 -65 -302q-65 -143 -177 -230q-152 -119 -289 -119q-82 -1 -131 51t-49 120t51 132q52 62 138 107q165 86 354 131q2 14 2 53q0 227 -156 228
q-131 0 -295 -158l-35 49q219 231 426 232q90 0 158 -67t68 -227z" />
    <glyph glyph-name="colonmonetary" unicode="&#x20a1;" 
d="M281 440q0 -154 45 -262l358 1022q-128 -35 -254 -215q-70 -98 -106 -244q-43 -147 -43 -301zM776 1212q-18 0 -24 -2l-383 -1085q37 -35 82 -45l393 1120q-50 12 -68 12zM516 2h-29l-51 -137h-61l49 143q-39 6 -86 31l-64 -174h-61l72 203q-80 51 -129 159
q-47 113 -45 248q4 317 180 541q178 223 418 254l49 139h63l-47 -133q37 2 94 -4l50 137h63l-53 -147q39 -8 108 -33q-12 -150 -28 -254l-54 -2q0 158 -55 203l-387 -1104q6 -2 18 -2q80 4 148 58t153 179l46 -28q-70 -162 -125 -232q-117 -45 -236 -45z" />
    <glyph glyph-name="franc" unicode="&#x20a3;" 
d="M723 1208h-113q-41 0 -52 -10t-21 -55l-84 -438q223 0 417 18l-20 -111q-147 14 -414 17l-43 -238h309l-14 -72h-309l-17 -75q-22 -125 6 -154t160 -37l-10 -53h-518l10 53q109 8 141 38t54 153l14 75h-170l14 72h170l123 635q25 119 4 156q-23 31 -137 41l13 53h790
q-23 -121 -37 -289l-57 -6q-6 125 -27 166q-14 37 -50 49t-132 12z" />
    <glyph glyph-name="lira" unicode="&#x20a4;" 
d="M893 326q37 0 37 -70t-49 -137q-51 -63 -140 -119t-186 -55q-23 0 -43 6q-33 3 -63 18q-29 15 -43 22l-20 10t-19 12q-14 9 -38 21t-73 42t-88 30q-59 0 -113 -92q-10 -25 -32 -24q-61 29 -7 96q27 37 127 126t131 286h-188l14 69h185l4 64q4 51 6 74h-170l14 69h162
q25 285 234 438q113 88 223 88q63 0 110 -26q47 -31 58 -57q20 -33 4 -59t-45 -48q-29 -23 -51 6q-72 84 -155 84t-126 -47t-59 -136t-19 -243h354l-16 -69h-340q-2 -94 -12 -138h330l-17 -69h-330q-51 -160 -223 -297q93 4 233 -65q226 -111 318 -42q37 29 37 74
q0 10 -8 47t12 59q39 51 80 52z" />
    <glyph glyph-name="peseta" unicode="&#x20a7;" 
d="M782 866h-360l-47 -256q61 -25 117 -24q96 0 184 65q86 70 106 215zM436 936h352q4 133 -61 207q-66 72 -160 71q-35 0 -57 -12q-23 -8 -39 -80zM573 1276q216 0 308 -113q41 -55 55 -108t18 -119h103l-15 -70h-96q-30 -164 -140 -255t-253 -105q-41 -6 -78 0l-113 39
l-59 -303q-25 -123 4 -152t156 -37l-10 -53h-521l13 53q113 8 145 37t55 154l123 622h-139l16 70h138l18 96q21 131 -1 158t-138 35l12 51h399z" />
    <glyph glyph-name="dong" unicode="&#x20ab;" 
d="M786 29l-20 -74h-694l18 74h696zM534 799q-160 0 -235 -197q-43 -110 -43 -220t53 -110t154 101q102 117 143 190l43 195q-41 41 -115 41zM606 152q-39 0 -57 24q-12 29 2 103l31 147h-4q-98 -129 -201 -205q-90 -70 -172 -69q-49 0 -86 49q-33 49 -33 151t52 212
q52 112 143 190q57 45 145 86q92 37 143 37t101 -17l35 152h-211l18 73h209l10 56q10 47 -2 61q-14 14 -65 15h-48l7 49q81 7 175 32q95 25 103 25q25 0 12 -47l-43 -191h121l-20 -73h-117q-80 -352 -143 -684q-10 -53 8 -54q29 0 112 78l27 -45q-55 -67 -134 -111t-118 -44
z" />
    <glyph glyph-name="Euro" unicode="&#x20ac;" 
d="M799 1300q104 0 227 -47q-14 -160 -25 -264l-57 -4q-6 121 -39 186q-37 61 -141 61t-212 -115q-108 -116 -165 -314h444l-18 -70h-446q-23 -74 -25 -147h434l-22 -72h-416q-14 -199 37 -332t178 -137q84 0 143 53q59 43 148 164l45 -29q-82 -170 -129 -223
q-109 -35 -221 -35q-199 -1 -295 147t-88 392h-131l20 72h115q10 92 26 147h-108l20 70h107q79 241 235 369t359 128z" />
    <glyph glyph-name="uni20B9" unicode="&#x20b9;" horiz-adv-x="942" 
d="M784 985v-2q2 -168 -118 -268t-332 -131q2 -4 6 -14t13 -27q9 -18 25 -54t32 -66t46 -91q82 -164 158 -238q47 -43 113 -59l-16 -53q-152 2 -223 36t-130 138q-12 23 -75 139q-29 61 -79 167t-57 118l7 36q341 35 424 191q39 70 36 162v16h-430l15 72h403
q-49 143 -262 143q-49 0 -115 -4l19 80h766l-15 -72h-319q28 -14 56 -55t42 -92h193l-15 -72h-168z" />
  </font>
</defs>
</svg>
