<?xml version="1.0" encoding="utf-8"?>
<!-- Generator: Adobe Illustrator 16.0.0, SVG Export Plug-In . SVG Version: 6.00 Build 0)  -->
<!DOCTYPE svg PUBLIC "-//W3C//DTD SVG 1.0//EN" "http://www.w3.org/TR/2001/REC-SVG-20010904/DTD/svg10.dtd">
<svg version="1.0" id="Layer_1" xmlns="http://www.w3.org/2000/svg" xmlns:xlink="http://www.w3.org/1999/xlink" x="0px" y="0px"
	 width="577px" height="209px" viewBox="0 0 577 209" enable-background="new 0 0 577 209" xml:space="preserve">
<g>
	<defs>
		<rect id="SVGID_1_" x="1" y="-2.2" width="577" height="209"/>
	</defs>
	<clipPath id="SVGID_2_">
		<use xlink:href="#SVGID_1_"  overflow="visible"/>
	</clipPath>
	<polyline clip-path="url(#SVGID_2_)" fill="#FFFFFF" points="422.356,47.904 477.652,47.904 477.652,199.895 477.862,202.168 
		520.439,202.168 520.439,47.904 575.602,47.904 575.602,5.337 422.356,5.337 422.356,47.904 	"/>
</g>
<g>
	<defs>
		<rect id="SVGID_3_" x="1" y="1.34" width="574.602" height="205.153"/>
	</defs>
	<clipPath id="SVGID_4_">
		<use xlink:href="#SVGID_3_"  overflow="visible"/>
	</clipPath>
	<g clip-path="url(#SVGID_4_)">
		<defs>
			<rect id="SVGID_5_" x="1" y="-2.2" width="577" height="209"/>
		</defs>
		<clipPath id="SVGID_6_">
			<use xlink:href="#SVGID_5_"  overflow="visible"/>
		</clipPath>
		<path clip-path="url(#SVGID_6_)" fill="#FFFFFF" d="M340.214,97.277c1.356-2.175,2.533-4.499,3.624-6.731l1.484-3.312
			c2.661-6.859,3.987-14.061,3.987-21.749c0-15.555-6.184-30.501-17.444-42.162c-11.614-11.22-26.556-17.418-42.393-17.418H207.97
			v196.329h93.706c15.51,0,30.44-6.179,42.121-17.439c11.21-11.649,17.383-26.606,17.383-42.11c0-15.136-5.544-29.452-15.52-40.207
			C343.98,100.487,342.123,98.854,340.214,97.277 M318.997,141.148c-0.358,5.667-2.585,10.806-6.225,14.455
			c-3.07,3.051-7.135,5.108-11.634,5.928l-50.654-0.062v-40.657h48.007c5.421,0,10.482,2.083,14.28,5.846
			C316.725,130.646,318.997,135.852,318.997,141.148z M250.485,84.507V44.612h36.511c5.267,0,10.371,2.094,14,5.743
			c3.496,3.491,5.687,8.384,6.137,14.04l-0.404,1.976c0,0.982-0.439,2.708-0.681,3.624l-0.317,0.982
			c-0.281,0.88-0.589,1.869-1.121,2.698c-3.46,6.536-9.331,10.473-15.964,10.831H250.485z"/>
		<path clip-path="url(#SVGID_6_)" fill="#FFFFFF" d="M103.725,43.87c21.145,0,40.995,11.348,51.79,29.637l32.841-27.661
			C169.141,17.97,137.502,1.34,103.725,1.34C47.083,1.34,1,47.428,1,104.075C1,160.712,47.083,206.8,103.725,206.8
			c33.777,0,65.416-16.625,84.63-44.496l-32.841-27.655c-10.954,18.539-30.333,29.616-51.79,29.616
			c-33.194,0-60.21-26.99-60.21-60.189C43.515,70.881,70.531,43.87,103.725,43.87"/>
	</g>
</g>
</svg>
