<?xml version="1.0" encoding="utf-8"?>
<!-- Generator: Adobe Illustrator 16.0.0, SVG Export Plug-In . SVG Version: 6.00 Build 0)  -->
<!DOCTYPE svg PUBLIC "-//W3C//DTD SVG 1.0//EN" "http://www.w3.org/TR/2001/REC-SVG-20010904/DTD/svg10.dtd">
<svg version="1.0" id="Layer_1" xmlns="http://www.w3.org/2000/svg" xmlns:xlink="http://www.w3.org/1999/xlink" x="0px" y="0px"
	 width="426px" height="68px" viewBox="0 0 426 68" enable-background="new 0 0 426 68" xml:space="preserve">
<g>
	<defs>
		<rect id="SVGID_1_" width="426" height="68"/>
	</defs>
	<clipPath id="SVGID_2_">
		<use xlink:href="#SVGID_1_"  overflow="visible"/>
	</clipPath>
	<path clip-path="url(#SVGID_2_)" d="M254.57,45.578c0,6.363-2.417,11.66-7.249,15.893c-4.832,4.231-10.521,6.349-17.062,6.349
		c-6.905,0-12.684-2.117-17.335-6.349c-4.653-4.232-6.979-9.529-6.979-15.893c0-6.362,2.355-11.662,7.069-15.893
		c4.712-4.233,10.46-6.348,17.245-6.348c6.662,0,12.381,2.1,17.153,6.302C252.185,33.842,254.57,39.155,254.57,45.578
		 M236.65,45.488c0-0.842-0.059-2.521-0.179-5.043c-0.122-2.521-0.181-4.021-0.181-4.503c0-3.241-0.495-5.912-1.485-8.014
		c-0.99-2.1-2.537-3.15-4.638-3.15c-1.922,0-3.393,1.096-4.412,3.285c-1.021,2.192-1.531,4.817-1.531,7.879
		c0,1.141-0.044,2.536-0.136,4.188c-0.089,1.651-0.164,3.438-0.224,5.358c0,0.842,0.06,2.564,0.179,5.176
		c0.12,2.611,0.181,4.13,0.181,4.549c0,3.241,0.495,5.913,1.485,8.013c0.992,2.103,2.507,3.152,4.549,3.152
		c1.98,0,3.479-1.08,4.502-3.242c1.02-2.16,1.53-4.801,1.53-7.923c0-1.2,0.03-2.626,0.091-4.276
		C236.439,49.285,236.53,47.469,236.65,45.488z"/>
	<path clip-path="url(#SVGID_2_)" d="M111.994,58.209c-0.039-0.544-0.067-1.119-0.067-1.765V35.729c0-4.222-2.045-7.341-6.137-9.361
		s-8.573-3.03-13.447-3.03c-5.776,0-10.754,1.114-14.935,3.347c-4.181,2.232-6.272,5.214-6.272,8.954
		c0,1.868,0.766,3.361,2.303,4.477c1.536,1.116,3.327,1.673,5.374,1.673c3.733,0,6.428-0.724,8.084-2.171
		c1.655-1.447,2.484-3.106,2.484-4.976c0-1.991-0.639-3.483-1.919-4.481c-1.279-0.994-1.918-1.822-1.918-2.487
		c0-0.844,0.4-1.538,1.203-2.08c0.8-0.544,1.797-0.814,2.987-0.814c1.899,0,3.149,0.512,3.743,1.534
		c0.594,1.022,0.892,2.708,0.892,5.053l0.088,8.209c0,1.085-0.33,1.852-0.99,2.302c-0.661,0.451-1.756,0.872-3.286,1.264
		c-1.532,0.391-3.917,0.738-7.159,1.039c-3.242,0.3-5.643,0.662-7.203,1.082c-1.563,0.421-3.093,1.549-4.593,3.384
		c-1.501,1.836-2.252,4.257-2.252,7.263c0,3.731,1.2,6.65,3.603,8.754c2.401,2.105,5.522,3.158,9.365,3.158
		c3.602,0,6.528-0.608,8.779-1.826s3.856-3.044,4.818-5.477c0.419,2.224,1.635,3.996,3.646,5.317
		c2.011,1.324,4.307,1.985,6.888,1.985c2.343,0,4.262-0.227,5.763-0.678c0.938-0.282,1.961-0.835,3.051-1.598
		C113.139,63.673,112.044,61.082,111.994,58.209 M94.457,59.804c-0.237,1.022-0.786,1.982-1.646,2.883
		c-0.862,0.9-1.857,1.351-2.983,1.351c-1.487,0-2.436-0.812-2.851-2.431c-0.417-1.622-0.623-3.784-0.623-6.486
		c0-1.801,0.163-3.557,0.489-5.269c0.327-1.71,0.771-2.867,1.335-3.467c0.565-0.601,1.573-1.218,3.029-1.848
		c1.455-0.631,2.449-1.307,2.984-2.027l0.266,0.09V59.804z"/>
	<path clip-path="url(#SVGID_2_)" d="M157.843,26.712c-2.011-2.009-4.456-3.016-7.338-3.016c-9.95,0-11.656,7.024-12.067,8.104
		v-7.563h-19.3c1.275,1.788,2.041,4.033,2.041,6.477c0,0.104-0.012,0.206-0.015,0.31l0.076,3.117v21.522l-0.09,4.142
		c0,0.174-0.008,0.312-0.01,0.476c0.014,0.233,0.032,0.465,0.032,0.701c0,2.201-0.618,4.245-1.672,5.938h20.932
		c-0.62-0.995-1.079-2.114-1.361-3.313c-0.241-0.654-0.363-1.617-0.363-2.901l-0.089-4.501V35.402c0-6.391,6.663-9.389,6.663-7.382
		c-0.6,1.199-1.202,2.371-1.801,3.51c-0.54,1.261-0.811,2.643-0.811,4.142c0,2.042,0.826,3.859,2.477,5.448
		c1.651,1.592,3.616,2.388,5.898,2.388c2.762,0,5.088-0.916,6.979-2.748c1.891-1.83,2.837-4.126,2.837-6.888
		C160.861,31.111,159.854,28.725,157.843,26.712"/>
	<path clip-path="url(#SVGID_2_)" d="M201.89,26.712c-2.012-2.009-4.456-3.016-7.338-3.016c-9.951,0-11.656,7.024-12.067,8.104
		v-7.563h-19.301c1.275,1.788,2.041,4.033,2.041,6.477c0,0.104-0.012,0.206-0.015,0.31l0.077,3.117v21.522l-0.09,4.142
		c0,0.174-0.009,0.312-0.011,0.476c0.015,0.233,0.033,0.465,0.033,0.701c0,2.201-0.618,4.245-1.673,5.938h20.932
		c-0.62-0.995-1.08-2.114-1.361-3.313c-0.241-0.654-0.363-1.617-0.363-2.901l-0.088-4.501V35.402c0-6.391,6.662-9.389,6.662-7.382
		c-0.6,1.199-1.202,2.371-1.8,3.51c-0.541,1.261-0.811,2.643-0.811,4.142c0,2.042,0.825,3.859,2.476,5.448
		c1.652,1.592,3.617,2.388,5.898,2.388c2.762,0,5.088-0.916,6.979-2.748c1.891-1.83,2.837-4.126,2.837-6.888
		C204.907,31.111,203.901,28.725,201.89,26.712"/>
	<path clip-path="url(#SVGID_2_)" d="M309.214,66.919c-0.914-1.465-1.492-3.195-1.633-5.063c-0.024-0.255-0.032-0.542-0.039-0.83
		c0-0.016-0.001-0.03-0.001-0.044v-0.003c-0.002-0.095-0.012-0.176-0.012-0.274l-0.09-3.689V24.237h-19.774
		c1.394,1.829,2.233,4.177,2.233,6.745c0,0.126,0.162,4.509,0.162,4.509v24.313c-0.538,1.141-1.238,2.251-2.101,3.331
		c-0.865,1.082-2.249,1.623-4.154,1.623c-1.728,0-3.023-0.616-3.887-1.848c-0.864-1.229-1.295-3.074-1.295-5.538l-0.09-3.691V24.237
		h-19.638c0.729,0.969,1.297,2.086,1.676,3.3c0.263,0.536,0.415,1.289,0.464,2.24c0.039,0.387,0.063,0.779,0.063,1.178
		c0,0.107,0.056,3.186,0.056,3.186v19.991c0,4.265,1.62,7.595,4.862,9.996c3.181,2.461,6.843,3.691,10.985,3.691
		c3.542,0,6.318-0.571,8.329-1.711c2.012-1.139,3.706-2.791,5.088-4.953v5.764H309.214"/>
	<path clip-path="url(#SVGID_2_)" d="M425.779,66.919c-1.087-1.708-1.728-3.78-1.728-6.018c0-0.144-0.086-59.627-0.086-59.627
		h-20.37c1.409,0.678,2.948,2.234,2.948,6.576c0,0.185-0.057,52.316-0.06,52.502c0.007,0.184,0.024,0.363,0.024,0.549
		c0,2.237-0.642,4.31-1.728,6.018H425.779"/>
	<path clip-path="url(#SVGID_2_)" d="M56.099,58.185c-3.303,3.962-7.685,5.943-13.147,5.943c-5.883,0-10.341-3.108-13.371-9.32
		c-3.032-6.214-4.548-13.553-4.548-22.017c0-7.863,1.26-14.736,3.782-20.621c2.521-5.882,6.393-8.824,11.615-8.824
		c10.571,0,18.606,12.335,21.771,19.991h0.831c0,0,0-13.33,0-15.655c-6.209,2.695-14.49-7.397-27.735-7.397
		c-10.385,0-18.863,3.138-25.436,9.41C3.287,15.967,0,24.117,0,34.141c0,9.786,3.317,17.875,9.95,24.267
		C16.583,64.802,25.062,68,35.389,68c9.123,0,15.996-2.371,20.62-7.113c4.396-4.512,7.061-10.151,8.036-16.891h-1.628
		C61.268,49.759,59.17,54.497,56.099,58.185"/>
	<path clip-path="url(#SVGID_2_)" d="M399.878,53.511c-1.127,2.791-2.655,5.158-4.625,7.061c-2.144,2.07-5.059,3.105-8.741,3.105
		c-2.563,0-4.695-0.645-6.394-1.936c-1.7-1.291-3.011-2.986-3.935-5.088c-0.924-2.1-1.55-4.277-1.878-6.528
		s-0.491-4.458-0.491-6.617h27.645c0-5.644-1.835-10.417-5.505-14.319c-3.669-3.902-8.961-5.852-15.878-5.852
		c-6.618,0-12.285,2.086-17.008,6.258c-4.722,4.173-7.083,9.5-7.083,15.983c0,6.963,2.286,12.411,6.856,16.344
		c4.571,3.932,10.405,5.897,17.505,5.897c5.052,0,9.442-1.275,13.171-3.827c3.7-2.532,6.393-6.027,8.08-10.481H399.878
		 M373.993,35.942c0.298-3.782,0.819-6.587,1.564-8.419c0.745-1.83,2.07-2.745,3.977-2.745c2.203,0,3.752,0.946,4.646,2.835
		c0.894,1.891,1.342,4.669,1.342,8.33c0,1.383,0.013,2.521,0.043,3.421c0.029,0.902,0.074,1.684,0.135,2.343h-11.886L373.993,35.942
		z"/>
	<path clip-path="url(#SVGID_2_)" d="M352.45,53.101c0.021-2.332-0.746-4.197-1.929-5.947c-1.321-1.95-2.972-3.585-4.952-4.907
		c-1.98-1.321-4.219-2.657-6.709-4.008c-2.491-1.35-4.457-2.46-5.897-3.331c-1.441-0.87-2.537-1.695-3.286-2.476
		c-0.752-0.78-1.126-1.861-1.126-3.242c0-9.929,19.447-2.341,19.838,6.797h0.455c0,0,0-7.335,0-8.613
		c-3.028,1.315-6.958-2.896-12.891-3.868v0.024c-0.803-0.114-1.615-0.192-2.451-0.192c-4.862,0-8.974,1.215-12.336,3.646
		c-3.362,2.43-5.041,5.869-5.041,10.31c0,2.042,0.434,3.843,1.306,5.403c0.868,1.562,2.099,2.957,3.69,4.188
		c1.591,1.23,3.571,2.491,5.943,3.78c1.521,0.83,2.914,1.605,4.201,2.334c0.849,0.499,1.607,0.956,2.263,1.362
		c1.624,1.01,2.858,1.971,3.704,2.875c0.848,0.905,1.27,2.163,1.27,3.766c0,3.909-3.376,5.552-6.233,5.42
		c-6.518-0.302-15.849-6.427-16.134-13.312h-0.514c0,0,0,8.517,0,10.002c3.416-1.527,7.331,4.688,19.685,4.688
		c5.795,0,9.722-1.579,12.355-3.812C350.877,61.649,352.45,57.848,352.45,53.101"/>
</g>
</svg>
